<mxfile host="app.diagrams.net" modified="2024-05-18T12:06:30.535Z" agent="Mozilla/5.0 (Macintosh; Intel Mac OS X 10_15_7) AppleWebKit/537.36 (KHTML, like Gecko) Chrome/124.0.0.0 Safari/537.36 Edg/124.0.0.0" etag="N1eKtc3TKChD0NTResLO" version="24.4.1" type="device" pages="5">
  <diagram id="8ESx_5yLAKoN8qAS1jF6" name="medusa">
    <mxGraphModel dx="651" dy="473" grid="1" gridSize="10" guides="1" tooltips="1" connect="1" arrows="1" fold="1" page="1" pageScale="1" pageWidth="827" pageHeight="1169" math="0" shadow="0">
      <root>
        <mxCell id="0" />
        <mxCell id="1" parent="0" />
        <mxCell id="H_im_rN67ng9Ntnu-TIG-22" style="edgeStyle=orthogonalEdgeStyle;rounded=0;orthogonalLoop=1;jettySize=auto;html=1;exitX=0.5;exitY=1;exitDx=0;exitDy=0;entryX=0.5;entryY=0;entryDx=0;entryDy=0;strokeWidth=3;" parent="1" source="H_im_rN67ng9Ntnu-TIG-6" target="H_im_rN67ng9Ntnu-TIG-15" edge="1">
          <mxGeometry relative="1" as="geometry" />
        </mxCell>
        <mxCell id="H_im_rN67ng9Ntnu-TIG-111" style="rounded=0;orthogonalLoop=1;jettySize=auto;html=1;exitX=1;exitY=0;exitDx=0;exitDy=0;entryX=0;entryY=0.75;entryDx=0;entryDy=0;startArrow=classic;startFill=1;fillColor=#d0cee2;strokeColor=#56517e;" parent="1" source="H_im_rN67ng9Ntnu-TIG-6" target="H_im_rN67ng9Ntnu-TIG-110" edge="1">
          <mxGeometry relative="1" as="geometry" />
        </mxCell>
        <mxCell id="H_im_rN67ng9Ntnu-TIG-6" value="&lt;font&gt;Filtering&lt;/font&gt;" style="rounded=1;whiteSpace=wrap;html=1;fontStyle=1;fillColor=#6600CC;fontColor=#E5CCFF;strokeColor=#190033;" parent="1" vertex="1">
          <mxGeometry x="600" y="90" width="80" height="40" as="geometry" />
        </mxCell>
        <mxCell id="H_im_rN67ng9Ntnu-TIG-20" style="edgeStyle=orthogonalEdgeStyle;rounded=0;orthogonalLoop=1;jettySize=auto;html=1;exitX=1;exitY=0.5;exitDx=0;exitDy=0;strokeWidth=3;" parent="1" source="H_im_rN67ng9Ntnu-TIG-7" target="H_im_rN67ng9Ntnu-TIG-14" edge="1">
          <mxGeometry relative="1" as="geometry" />
        </mxCell>
        <mxCell id="H_im_rN67ng9Ntnu-TIG-44" style="rounded=0;orthogonalLoop=1;jettySize=auto;html=1;exitX=0.25;exitY=0;exitDx=0;exitDy=0;entryX=0.75;entryY=1;entryDx=0;entryDy=0;startArrow=classic;startFill=1;fillColor=#d0cee2;strokeColor=#56517e;" parent="1" source="H_im_rN67ng9Ntnu-TIG-7" target="H_im_rN67ng9Ntnu-TIG-43" edge="1">
          <mxGeometry relative="1" as="geometry" />
        </mxCell>
        <mxCell id="H_im_rN67ng9Ntnu-TIG-7" value="&lt;b&gt;&lt;font color=&quot;#e5ccff&quot;&gt;Data Extraction&lt;/font&gt;&lt;/b&gt;" style="rounded=1;whiteSpace=wrap;html=1;fillColor=#4C0099;strokeColor=#190033;fontColor=#330066;" parent="1" vertex="1">
          <mxGeometry x="240" y="90" width="80" height="40" as="geometry" />
        </mxCell>
        <mxCell id="H_im_rN67ng9Ntnu-TIG-108" style="rounded=0;orthogonalLoop=1;jettySize=auto;html=1;exitX=0.5;exitY=1;exitDx=0;exitDy=0;entryX=0.5;entryY=0;entryDx=0;entryDy=0;startArrow=classic;startFill=1;fillColor=#d0cee2;strokeColor=#56517e;" parent="1" source="H_im_rN67ng9Ntnu-TIG-8" target="H_im_rN67ng9Ntnu-TIG-102" edge="1">
          <mxGeometry relative="1" as="geometry" />
        </mxCell>
        <mxCell id="fzQ5EZh8jWBMia80PaFk-2" style="edgeStyle=orthogonalEdgeStyle;rounded=0;orthogonalLoop=1;jettySize=auto;html=1;exitX=0;exitY=0.5;exitDx=0;exitDy=0;entryX=1;entryY=0.5;entryDx=0;entryDy=0;strokeWidth=3;" parent="1" source="H_im_rN67ng9Ntnu-TIG-8" target="fzQ5EZh8jWBMia80PaFk-1" edge="1">
          <mxGeometry relative="1" as="geometry" />
        </mxCell>
        <mxCell id="H_im_rN67ng9Ntnu-TIG-8" value="Identify" style="rounded=1;whiteSpace=wrap;html=1;fontStyle=1;fillColor=#E5CCFF;fontColor=#330066;" parent="1" vertex="1">
          <mxGeometry x="120" y="290" width="80" height="40" as="geometry" />
        </mxCell>
        <mxCell id="H_im_rN67ng9Ntnu-TIG-26" style="edgeStyle=orthogonalEdgeStyle;rounded=0;orthogonalLoop=1;jettySize=auto;html=1;exitX=0;exitY=0.5;exitDx=0;exitDy=0;entryX=1;entryY=0.5;entryDx=0;entryDy=0;strokeWidth=3;" parent="1" source="H_im_rN67ng9Ntnu-TIG-9" target="H_im_rN67ng9Ntnu-TIG-17" edge="1">
          <mxGeometry relative="1" as="geometry" />
        </mxCell>
        <mxCell id="H_im_rN67ng9Ntnu-TIG-9" value="Stats" style="rounded=1;whiteSpace=wrap;html=1;fontStyle=1;fillColor=#CC99FF;fontColor=#330066;" parent="1" vertex="1">
          <mxGeometry x="360" y="290" width="80" height="40" as="geometry" />
        </mxCell>
        <mxCell id="H_im_rN67ng9Ntnu-TIG-24" style="edgeStyle=orthogonalEdgeStyle;rounded=0;orthogonalLoop=1;jettySize=auto;html=1;exitX=0;exitY=0.5;exitDx=0;exitDy=0;entryX=1;entryY=0.5;entryDx=0;entryDy=0;strokeWidth=3;" parent="1" source="H_im_rN67ng9Ntnu-TIG-10" target="H_im_rN67ng9Ntnu-TIG-16" edge="1">
          <mxGeometry relative="1" as="geometry" />
        </mxCell>
        <mxCell id="H_im_rN67ng9Ntnu-TIG-10" value="&lt;font&gt;Post Processing&lt;/font&gt;" style="rounded=1;whiteSpace=wrap;html=1;fontStyle=1;fillColor=#9933FF;strokeColor=#330066;fontColor=#E5CCFF;" parent="1" vertex="1">
          <mxGeometry x="600" y="290" width="80" height="40" as="geometry" />
        </mxCell>
        <mxCell id="H_im_rN67ng9Ntnu-TIG-19" style="edgeStyle=orthogonalEdgeStyle;rounded=0;orthogonalLoop=1;jettySize=auto;html=1;exitX=1;exitY=0.5;exitDx=0;exitDy=0;entryX=0;entryY=0.5;entryDx=0;entryDy=0;shadow=0;strokeWidth=3;exitPerimeter=0;" parent="1" source="zoK7hTAPk3AykA1J95tn-6" target="H_im_rN67ng9Ntnu-TIG-7" edge="1">
          <mxGeometry relative="1" as="geometry">
            <mxPoint x="130" y="102.5" as="sourcePoint" />
          </mxGeometry>
        </mxCell>
        <mxCell id="H_im_rN67ng9Ntnu-TIG-21" style="edgeStyle=orthogonalEdgeStyle;rounded=0;orthogonalLoop=1;jettySize=auto;html=1;exitX=1;exitY=0.5;exitDx=0;exitDy=0;entryX=0;entryY=0.5;entryDx=0;entryDy=0;strokeWidth=3;" parent="1" source="H_im_rN67ng9Ntnu-TIG-14" target="H_im_rN67ng9Ntnu-TIG-6" edge="1">
          <mxGeometry relative="1" as="geometry" />
        </mxCell>
        <mxCell id="H_im_rN67ng9Ntnu-TIG-14" value="MzObj" style="ellipse;whiteSpace=wrap;html=1;" parent="1" vertex="1">
          <mxGeometry x="415" y="95" width="50" height="30" as="geometry" />
        </mxCell>
        <mxCell id="H_im_rN67ng9Ntnu-TIG-23" style="edgeStyle=orthogonalEdgeStyle;rounded=0;orthogonalLoop=1;jettySize=auto;html=1;exitX=0.5;exitY=1;exitDx=0;exitDy=0;entryX=0.5;entryY=0;entryDx=0;entryDy=0;strokeWidth=3;" parent="1" source="H_im_rN67ng9Ntnu-TIG-15" target="H_im_rN67ng9Ntnu-TIG-10" edge="1">
          <mxGeometry relative="1" as="geometry" />
        </mxCell>
        <mxCell id="H_im_rN67ng9Ntnu-TIG-15" value="MzObj" style="ellipse;whiteSpace=wrap;html=1;" parent="1" vertex="1">
          <mxGeometry x="615" y="190" width="50" height="30" as="geometry" />
        </mxCell>
        <mxCell id="H_im_rN67ng9Ntnu-TIG-25" style="edgeStyle=orthogonalEdgeStyle;rounded=0;orthogonalLoop=1;jettySize=auto;html=1;exitX=0;exitY=0.5;exitDx=0;exitDy=0;entryX=1;entryY=0.5;entryDx=0;entryDy=0;strokeWidth=3;" parent="1" source="H_im_rN67ng9Ntnu-TIG-16" target="H_im_rN67ng9Ntnu-TIG-9" edge="1">
          <mxGeometry relative="1" as="geometry" />
        </mxCell>
        <mxCell id="H_im_rN67ng9Ntnu-TIG-16" value="MzObj" style="ellipse;whiteSpace=wrap;html=1;" parent="1" vertex="1">
          <mxGeometry x="494" y="295" width="50" height="30" as="geometry" />
        </mxCell>
        <mxCell id="H_im_rN67ng9Ntnu-TIG-27" style="edgeStyle=orthogonalEdgeStyle;rounded=0;orthogonalLoop=1;jettySize=auto;html=1;exitX=0;exitY=0.5;exitDx=0;exitDy=0;entryX=1;entryY=0.5;entryDx=0;entryDy=0;strokeWidth=3;" parent="1" source="H_im_rN67ng9Ntnu-TIG-17" target="H_im_rN67ng9Ntnu-TIG-8" edge="1">
          <mxGeometry relative="1" as="geometry" />
        </mxCell>
        <mxCell id="H_im_rN67ng9Ntnu-TIG-17" value="Mz" style="ellipse;whiteSpace=wrap;html=1;" parent="1" vertex="1">
          <mxGeometry x="255" y="295" width="50" height="30" as="geometry" />
        </mxCell>
        <mxCell id="H_im_rN67ng9Ntnu-TIG-43" value="&lt;font style=&quot;font-size: 10px;&quot; color=&quot;#330066&quot;&gt;extract scans&lt;/font&gt;" style="rounded=0;whiteSpace=wrap;html=1;strokeColor=#9673a6;fillColor=#e1d5e7;fontSize=10;" parent="1" vertex="1">
          <mxGeometry x="200" y="30" width="70" height="30" as="geometry" />
        </mxCell>
        <mxCell id="H_im_rN67ng9Ntnu-TIG-45" style="rounded=0;orthogonalLoop=1;jettySize=auto;html=1;exitX=0.75;exitY=0;exitDx=0;exitDy=0;startArrow=classic;startFill=1;entryX=0.25;entryY=1;entryDx=0;entryDy=0;fillColor=#d0cee2;strokeColor=#56517e;" parent="1" source="H_im_rN67ng9Ntnu-TIG-7" target="H_im_rN67ng9Ntnu-TIG-46" edge="1">
          <mxGeometry relative="1" as="geometry">
            <mxPoint x="320" y="50" as="sourcePoint" />
            <mxPoint x="335" y="50" as="targetPoint" />
          </mxGeometry>
        </mxCell>
        <mxCell id="H_im_rN67ng9Ntnu-TIG-46" value="&lt;font color=&quot;#330066&quot; style=&quot;font-size: 10px;&quot;&gt;&lt;span style=&quot;font-size: 10px;&quot;&gt;filter(scans)&lt;/span&gt;&lt;/font&gt;" style="rounded=0;whiteSpace=wrap;html=1;strokeColor=#9673a6;fillColor=#e1d5e7;fontSize=10;" parent="1" vertex="1">
          <mxGeometry x="290" y="30" width="70" height="30" as="geometry" />
        </mxCell>
        <mxCell id="H_im_rN67ng9Ntnu-TIG-48" style="rounded=0;orthogonalLoop=1;jettySize=auto;html=1;exitX=0.25;exitY=1;exitDx=0;exitDy=0;entryX=0.75;entryY=0;entryDx=0;entryDy=0;startArrow=classic;startFill=1;fillColor=#d0cee2;strokeColor=#56517e;" parent="1" source="H_im_rN67ng9Ntnu-TIG-7" target="H_im_rN67ng9Ntnu-TIG-49" edge="1">
          <mxGeometry relative="1" as="geometry">
            <mxPoint x="340" y="130" as="sourcePoint" />
          </mxGeometry>
        </mxCell>
        <mxCell id="H_im_rN67ng9Ntnu-TIG-49" value="&lt;font color=&quot;#330066&quot; style=&quot;font-size: 10px;&quot;&gt;&lt;span style=&quot;font-size: 10px;&quot;&gt;binning&lt;/span&gt;&lt;/font&gt;" style="rounded=0;whiteSpace=wrap;html=1;strokeColor=#9673a6;fillColor=#e1d5e7;fontSize=10;" parent="1" vertex="1">
          <mxGeometry x="200" y="160" width="70" height="30" as="geometry" />
        </mxCell>
        <mxCell id="H_im_rN67ng9Ntnu-TIG-51" style="rounded=0;orthogonalLoop=1;jettySize=auto;html=1;exitX=0.75;exitY=1;exitDx=0;exitDy=0;startArrow=classic;startFill=1;entryX=0.25;entryY=0;entryDx=0;entryDy=0;fillColor=#d0cee2;strokeColor=#56517e;" parent="1" source="H_im_rN67ng9Ntnu-TIG-7" target="H_im_rN67ng9Ntnu-TIG-52" edge="1">
          <mxGeometry relative="1" as="geometry">
            <mxPoint x="300" y="230" as="sourcePoint" />
            <mxPoint x="325" y="160" as="targetPoint" />
          </mxGeometry>
        </mxCell>
        <mxCell id="H_im_rN67ng9Ntnu-TIG-52" value="&lt;font color=&quot;#330066&quot; style=&quot;font-size: 10px;&quot;&gt;&lt;span style=&quot;font-size: 10px;&quot;&gt;generate MzObj&lt;/span&gt;&lt;/font&gt;" style="rounded=0;whiteSpace=wrap;html=1;strokeColor=#9673a6;fillColor=#e1d5e7;fontSize=10;" parent="1" vertex="1">
          <mxGeometry x="290" y="160" width="70" height="30" as="geometry" />
        </mxCell>
        <mxCell id="H_im_rN67ng9Ntnu-TIG-53" style="rounded=0;orthogonalLoop=1;jettySize=auto;html=1;exitX=0;exitY=0;exitDx=0;exitDy=0;entryX=1;entryY=0.75;entryDx=0;entryDy=0;startArrow=classic;startFill=1;fillColor=#d0cee2;strokeColor=#56517e;" parent="1" source="H_im_rN67ng9Ntnu-TIG-6" target="H_im_rN67ng9Ntnu-TIG-54" edge="1">
          <mxGeometry relative="1" as="geometry">
            <mxPoint x="620" y="90" as="sourcePoint" />
          </mxGeometry>
        </mxCell>
        <mxCell id="H_im_rN67ng9Ntnu-TIG-54" value="&lt;font color=&quot;#330066&quot; style=&quot;font-size: 10px;&quot;&gt;&lt;span style=&quot;font-size: 10px;&quot;&gt;low intensity&lt;/span&gt;&lt;/font&gt;" style="rounded=0;whiteSpace=wrap;html=1;strokeColor=#9673a6;fillColor=#e1d5e7;fontSize=10;" parent="1" vertex="1">
          <mxGeometry x="504" y="50" width="70" height="30" as="geometry" />
        </mxCell>
        <mxCell id="H_im_rN67ng9Ntnu-TIG-56" style="rounded=0;orthogonalLoop=1;jettySize=auto;html=1;exitX=0.25;exitY=0;exitDx=0;exitDy=0;entryX=0.5;entryY=1;entryDx=0;entryDy=0;startArrow=classic;startFill=1;fillColor=#d0cee2;strokeColor=#56517e;" parent="1" source="H_im_rN67ng9Ntnu-TIG-6" target="H_im_rN67ng9Ntnu-TIG-57" edge="1">
          <mxGeometry relative="1" as="geometry">
            <mxPoint x="710" y="90" as="sourcePoint" />
          </mxGeometry>
        </mxCell>
        <mxCell id="H_im_rN67ng9Ntnu-TIG-57" value="&lt;font color=&quot;#330066&quot; style=&quot;font-size: 10px;&quot;&gt;&lt;span style=&quot;font-size: 10px;&quot;&gt;missingness&lt;/span&gt;&lt;/font&gt;" style="rounded=0;whiteSpace=wrap;html=1;strokeColor=#9673a6;fillColor=#e1d5e7;fontSize=10;" parent="1" vertex="1">
          <mxGeometry x="560" y="10" width="70" height="30" as="geometry" />
        </mxCell>
        <mxCell id="H_im_rN67ng9Ntnu-TIG-58" value="&lt;font color=&quot;#330066&quot; style=&quot;font-size: 10px;&quot;&gt;&lt;span style=&quot;font-size: 10px;&quot;&gt;quality&lt;/span&gt;&lt;/font&gt;&lt;div&gt;&lt;font color=&quot;#330066&quot; style=&quot;font-size: 10px;&quot;&gt;&lt;span style=&quot;font-size: 10px;&quot;&gt;check&lt;/span&gt;&lt;/font&gt;&lt;/div&gt;" style="rounded=0;whiteSpace=wrap;html=1;strokeColor=#9673a6;fillColor=#e1d5e7;fontSize=10;" parent="1" vertex="1">
          <mxGeometry x="710" y="95" width="70" height="30" as="geometry" />
        </mxCell>
        <mxCell id="H_im_rN67ng9Ntnu-TIG-59" style="rounded=0;orthogonalLoop=1;jettySize=auto;html=1;entryX=0;entryY=0.5;entryDx=0;entryDy=0;startArrow=classic;startFill=1;exitX=1;exitY=0.5;exitDx=0;exitDy=0;fillColor=#d0cee2;strokeColor=#56517e;" parent="1" source="H_im_rN67ng9Ntnu-TIG-6" target="H_im_rN67ng9Ntnu-TIG-58" edge="1">
          <mxGeometry relative="1" as="geometry">
            <mxPoint x="680" y="100" as="sourcePoint" />
            <mxPoint x="678" y="70" as="targetPoint" />
          </mxGeometry>
        </mxCell>
        <mxCell id="H_im_rN67ng9Ntnu-TIG-60" value="&lt;font color=&quot;#330066&quot; style=&quot;font-size: 10px;&quot;&gt;&lt;span style=&quot;font-size: 10px;&quot;&gt;mass&amp;nbsp;&lt;/span&gt;&lt;/font&gt;&lt;div&gt;&lt;font color=&quot;#330066&quot; style=&quot;font-size: 10px;&quot;&gt;&lt;span style=&quot;font-size: 10px;&quot;&gt;defect&lt;/span&gt;&lt;/font&gt;&lt;/div&gt;" style="rounded=0;whiteSpace=wrap;html=1;strokeColor=#9673a6;fillColor=#e1d5e7;fontSize=10;" parent="1" vertex="1">
          <mxGeometry x="680" y="150" width="70" height="30" as="geometry" />
        </mxCell>
        <mxCell id="H_im_rN67ng9Ntnu-TIG-61" style="rounded=0;orthogonalLoop=1;jettySize=auto;html=1;startArrow=classic;startFill=1;exitX=1;exitY=1;exitDx=0;exitDy=0;entryX=0.25;entryY=0;entryDx=0;entryDy=0;fillColor=#d0cee2;strokeColor=#56517e;" parent="1" source="H_im_rN67ng9Ntnu-TIG-6" target="H_im_rN67ng9Ntnu-TIG-60" edge="1">
          <mxGeometry relative="1" as="geometry">
            <mxPoint x="680" y="150" as="sourcePoint" />
            <mxPoint x="710" y="140" as="targetPoint" />
          </mxGeometry>
        </mxCell>
        <mxCell id="H_im_rN67ng9Ntnu-TIG-75" style="rounded=0;orthogonalLoop=1;jettySize=auto;html=1;exitX=0;exitY=0.5;exitDx=0;exitDy=0;dashed=1;entryX=1;entryY=0.5;entryDx=0;entryDy=0;startArrow=classic;startFill=1;fillColor=#d0cee2;strokeColor=#56517e;" parent="1" source="H_im_rN67ng9Ntnu-TIG-63" target="H_im_rN67ng9Ntnu-TIG-76" edge="1">
          <mxGeometry relative="1" as="geometry">
            <mxPoint x="210" y="250" as="targetPoint" />
          </mxGeometry>
        </mxCell>
        <mxCell id="H_im_rN67ng9Ntnu-TIG-63" value="&lt;font color=&quot;#330066&quot; style=&quot;font-size: 10px;&quot;&gt;&lt;span style=&quot;font-size: 10px;&quot;&gt;isotope&amp;nbsp;&lt;/span&gt;&lt;/font&gt;&lt;div&gt;&lt;font color=&quot;#330066&quot; style=&quot;font-size: 10px;&quot;&gt;&lt;span style=&quot;font-size: 10px;&quot;&gt;tagging&lt;/span&gt;&lt;/font&gt;&lt;/div&gt;" style="rounded=0;whiteSpace=wrap;html=1;strokeColor=#9673a6;fillColor=#e1d5e7;fontSize=10;" parent="1" vertex="1">
          <mxGeometry x="520" y="150" width="70" height="30" as="geometry" />
        </mxCell>
        <mxCell id="H_im_rN67ng9Ntnu-TIG-64" style="rounded=0;orthogonalLoop=1;jettySize=auto;html=1;startArrow=classic;startFill=1;exitX=0.25;exitY=1;exitDx=0;exitDy=0;entryX=1;entryY=0.25;entryDx=0;entryDy=0;fillColor=#d0cee2;strokeColor=#56517e;" parent="1" source="H_im_rN67ng9Ntnu-TIG-6" target="H_im_rN67ng9Ntnu-TIG-63" edge="1">
          <mxGeometry relative="1" as="geometry">
            <mxPoint x="610" y="110" as="sourcePoint" />
            <mxPoint x="520" y="150" as="targetPoint" />
          </mxGeometry>
        </mxCell>
        <mxCell id="H_im_rN67ng9Ntnu-TIG-66" value="&lt;font color=&quot;#330066&quot; style=&quot;font-size: 10px;&quot;&gt;&lt;span style=&quot;font-size: 10px;&quot;&gt;imputation&lt;/span&gt;&lt;/font&gt;" style="rounded=0;whiteSpace=wrap;html=1;strokeColor=#9673a6;fillColor=#e1d5e7;fontSize=10;" parent="1" vertex="1">
          <mxGeometry x="710" y="250" width="70" height="30" as="geometry" />
        </mxCell>
        <mxCell id="H_im_rN67ng9Ntnu-TIG-67" style="rounded=0;orthogonalLoop=1;jettySize=auto;html=1;startArrow=classic;startFill=1;exitX=1;exitY=0.25;exitDx=0;exitDy=0;entryX=0;entryY=0.75;entryDx=0;entryDy=0;fillColor=#d0cee2;strokeColor=#56517e;" parent="1" source="H_im_rN67ng9Ntnu-TIG-10" target="H_im_rN67ng9Ntnu-TIG-66" edge="1">
          <mxGeometry relative="1" as="geometry">
            <mxPoint x="700" y="280" as="sourcePoint" />
            <mxPoint x="730" y="300" as="targetPoint" />
          </mxGeometry>
        </mxCell>
        <mxCell id="H_im_rN67ng9Ntnu-TIG-68" value="&lt;font color=&quot;#330066&quot; style=&quot;font-size: 10px;&quot;&gt;&lt;span style=&quot;font-size: 10px;&quot;&gt;pivot&amp;nbsp;&lt;/span&gt;&lt;/font&gt;&lt;div style=&quot;font-size: 10px;&quot;&gt;&lt;font color=&quot;#330066&quot; style=&quot;font-size: 10px;&quot;&gt;&lt;span style=&quot;font-size: 10px;&quot;&gt;longer&lt;/span&gt;&lt;/font&gt;&lt;/div&gt;" style="rounded=0;whiteSpace=wrap;html=1;strokeColor=#9673a6;fillColor=#e1d5e7;fontSize=10;" parent="1" vertex="1">
          <mxGeometry x="710" y="310" width="70" height="30" as="geometry" />
        </mxCell>
        <mxCell id="H_im_rN67ng9Ntnu-TIG-69" style="rounded=0;orthogonalLoop=1;jettySize=auto;html=1;startArrow=classic;startFill=1;entryX=0;entryY=0.5;entryDx=0;entryDy=0;exitX=1;exitY=0.75;exitDx=0;exitDy=0;fillColor=#d0cee2;strokeColor=#56517e;" parent="1" source="H_im_rN67ng9Ntnu-TIG-10" target="H_im_rN67ng9Ntnu-TIG-68" edge="1">
          <mxGeometry relative="1" as="geometry">
            <mxPoint x="680" y="305" as="sourcePoint" />
            <mxPoint x="690" y="273" as="targetPoint" />
          </mxGeometry>
        </mxCell>
        <mxCell id="H_im_rN67ng9Ntnu-TIG-70" value="&lt;font color=&quot;#330066&quot; style=&quot;font-size: 10px;&quot;&gt;&lt;span style=&quot;font-size: 10px;&quot;&gt;normalize&lt;/span&gt;&lt;/font&gt;" style="rounded=0;whiteSpace=wrap;html=1;strokeColor=#9673a6;fillColor=#e1d5e7;fontSize=10;" parent="1" vertex="1">
          <mxGeometry x="650" y="360" width="70" height="30" as="geometry" />
        </mxCell>
        <mxCell id="H_im_rN67ng9Ntnu-TIG-72" style="rounded=0;orthogonalLoop=1;jettySize=auto;html=1;startArrow=classic;startFill=1;entryX=0.25;entryY=0;entryDx=0;entryDy=0;exitX=0.75;exitY=1;exitDx=0;exitDy=0;fillColor=#d0cee2;strokeColor=#56517e;" parent="1" source="H_im_rN67ng9Ntnu-TIG-10" target="H_im_rN67ng9Ntnu-TIG-70" edge="1">
          <mxGeometry relative="1" as="geometry">
            <mxPoint x="690" y="315" as="sourcePoint" />
            <mxPoint x="720" y="305" as="targetPoint" />
          </mxGeometry>
        </mxCell>
        <mxCell id="H_im_rN67ng9Ntnu-TIG-73" value="&lt;font color=&quot;#330066&quot; style=&quot;font-size: 10px;&quot;&gt;&lt;span style=&quot;font-size: 10px;&quot;&gt;log transform&lt;/span&gt;&lt;/font&gt;" style="rounded=0;whiteSpace=wrap;html=1;strokeColor=#9673a6;fillColor=#e1d5e7;fontSize=10;" parent="1" vertex="1">
          <mxGeometry x="560" y="360" width="70" height="30" as="geometry" />
        </mxCell>
        <mxCell id="H_im_rN67ng9Ntnu-TIG-74" style="rounded=0;orthogonalLoop=1;jettySize=auto;html=1;startArrow=classic;startFill=1;entryX=0.75;entryY=0;entryDx=0;entryDy=0;exitX=0.25;exitY=1;exitDx=0;exitDy=0;fillColor=#d0cee2;strokeColor=#56517e;" parent="1" source="H_im_rN67ng9Ntnu-TIG-10" target="H_im_rN67ng9Ntnu-TIG-73" edge="1">
          <mxGeometry relative="1" as="geometry">
            <mxPoint x="550" y="340" as="sourcePoint" />
            <mxPoint x="590" y="325" as="targetPoint" />
          </mxGeometry>
        </mxCell>
        <mxCell id="H_im_rN67ng9Ntnu-TIG-76" value="&lt;font color=&quot;#330066&quot; style=&quot;font-size: 10px;&quot;&gt;&lt;span style=&quot;font-size: 10px;&quot;&gt;isotope&amp;nbsp;&lt;/span&gt;&lt;/font&gt;&lt;div&gt;&lt;font color=&quot;#330066&quot; style=&quot;font-size: 10px;&quot;&gt;&lt;span style=&quot;font-size: 10px;&quot;&gt;tagging&lt;/span&gt;&lt;/font&gt;&lt;/div&gt;" style="rounded=0;whiteSpace=wrap;html=1;strokeColor=#9673a6;fillColor=#e1d5e7;fontSize=10;" parent="1" vertex="1">
          <mxGeometry x="180" y="230" width="70" height="30" as="geometry" />
        </mxCell>
        <mxCell id="H_im_rN67ng9Ntnu-TIG-77" style="rounded=0;orthogonalLoop=1;jettySize=auto;html=1;startArrow=classic;startFill=1;exitX=0.25;exitY=1;exitDx=0;exitDy=0;entryX=0.75;entryY=0;entryDx=0;entryDy=0;fillColor=#d0cee2;strokeColor=#56517e;" parent="1" source="H_im_rN67ng9Ntnu-TIG-76" target="H_im_rN67ng9Ntnu-TIG-8" edge="1">
          <mxGeometry relative="1" as="geometry">
            <mxPoint x="630" y="140" as="sourcePoint" />
            <mxPoint x="610" y="158" as="targetPoint" />
          </mxGeometry>
        </mxCell>
        <mxCell id="H_im_rN67ng9Ntnu-TIG-78" value="fold" style="rounded=0;whiteSpace=wrap;html=1;strokeColor=#9673a6;fillColor=#e1d5e7;fontSize=10;" parent="1" vertex="1">
          <mxGeometry x="270" y="350" width="70" height="30" as="geometry" />
        </mxCell>
        <mxCell id="H_im_rN67ng9Ntnu-TIG-79" value="&lt;font color=&quot;#330066&quot; style=&quot;font-size: 10px;&quot;&gt;&lt;span style=&quot;font-size: 10px;&quot;&gt;anova&lt;/span&gt;&lt;/font&gt;" style="rounded=0;whiteSpace=wrap;html=1;strokeColor=#9673a6;fillColor=#e1d5e7;fontSize=10;" parent="1" vertex="1">
          <mxGeometry x="280" y="250" width="70" height="30" as="geometry" />
        </mxCell>
        <mxCell id="H_im_rN67ng9Ntnu-TIG-80" value="pca" style="rounded=0;whiteSpace=wrap;html=1;strokeColor=#9673a6;fillColor=#e1d5e7;fontSize=10;" parent="1" vertex="1">
          <mxGeometry x="365" y="220" width="70" height="30" as="geometry" />
        </mxCell>
        <mxCell id="H_im_rN67ng9Ntnu-TIG-83" value="random&amp;nbsp;&lt;div&gt;forest&lt;/div&gt;" style="rounded=0;whiteSpace=wrap;html=1;strokeColor=#9673a6;fillColor=#e1d5e7;fontSize=10;" parent="1" vertex="1">
          <mxGeometry x="410" y="390" width="70" height="30" as="geometry" />
        </mxCell>
        <mxCell id="H_im_rN67ng9Ntnu-TIG-84" value="volcano" style="rounded=0;whiteSpace=wrap;html=1;strokeColor=#9673a6;fillColor=#e1d5e7;fontSize=10;" parent="1" vertex="1">
          <mxGeometry x="459" y="350" width="70" height="30" as="geometry" />
        </mxCell>
        <mxCell id="H_im_rN67ng9Ntnu-TIG-86" value="welsh t-test" style="rounded=0;whiteSpace=wrap;html=1;strokeColor=#9673a6;fillColor=#e1d5e7;fontSize=10;" parent="1" vertex="1">
          <mxGeometry x="320" y="390" width="70" height="30" as="geometry" />
        </mxCell>
        <mxCell id="H_im_rN67ng9Ntnu-TIG-89" style="rounded=0;orthogonalLoop=1;jettySize=auto;html=1;startArrow=classic;startFill=1;exitX=0;exitY=1;exitDx=0;exitDy=0;entryX=0.75;entryY=0;entryDx=0;entryDy=0;fillColor=#d0cee2;strokeColor=#56517e;" parent="1" source="H_im_rN67ng9Ntnu-TIG-9" target="H_im_rN67ng9Ntnu-TIG-78" edge="1">
          <mxGeometry relative="1" as="geometry">
            <mxPoint x="360" y="447" as="sourcePoint" />
            <mxPoint x="330" y="475" as="targetPoint" />
          </mxGeometry>
        </mxCell>
        <mxCell id="H_im_rN67ng9Ntnu-TIG-92" style="rounded=0;orthogonalLoop=1;jettySize=auto;html=1;startArrow=classic;startFill=1;exitX=0.75;exitY=1;exitDx=0;exitDy=0;entryX=0.25;entryY=0;entryDx=0;entryDy=0;fillColor=#d0cee2;strokeColor=#56517e;" parent="1" source="H_im_rN67ng9Ntnu-TIG-9" target="H_im_rN67ng9Ntnu-TIG-83" edge="1">
          <mxGeometry relative="1" as="geometry">
            <mxPoint x="390" y="340" as="sourcePoint" />
            <mxPoint x="343" y="370" as="targetPoint" />
          </mxGeometry>
        </mxCell>
        <mxCell id="H_im_rN67ng9Ntnu-TIG-93" style="rounded=0;orthogonalLoop=1;jettySize=auto;html=1;startArrow=classic;startFill=1;exitX=1;exitY=1;exitDx=0;exitDy=0;entryX=0.25;entryY=0;entryDx=0;entryDy=0;fillColor=#d0cee2;strokeColor=#56517e;" parent="1" source="H_im_rN67ng9Ntnu-TIG-9" target="H_im_rN67ng9Ntnu-TIG-84" edge="1">
          <mxGeometry relative="1" as="geometry">
            <mxPoint x="410" y="340" as="sourcePoint" />
            <mxPoint x="410" y="370" as="targetPoint" />
          </mxGeometry>
        </mxCell>
        <mxCell id="H_im_rN67ng9Ntnu-TIG-94" style="rounded=0;orthogonalLoop=1;jettySize=auto;html=1;startArrow=classic;startFill=1;exitX=0.25;exitY=0;exitDx=0;exitDy=0;entryX=1;entryY=0.5;entryDx=0;entryDy=0;fillColor=#d0cee2;strokeColor=#56517e;" parent="1" source="H_im_rN67ng9Ntnu-TIG-9" target="H_im_rN67ng9Ntnu-TIG-79" edge="1">
          <mxGeometry relative="1" as="geometry">
            <mxPoint x="390" y="340" as="sourcePoint" />
            <mxPoint x="343" y="370" as="targetPoint" />
          </mxGeometry>
        </mxCell>
        <mxCell id="H_im_rN67ng9Ntnu-TIG-97" style="rounded=0;orthogonalLoop=1;jettySize=auto;html=1;startArrow=classic;startFill=1;exitX=0.5;exitY=0;exitDx=0;exitDy=0;entryX=0.5;entryY=1;entryDx=0;entryDy=0;fillColor=#d0cee2;strokeColor=#56517e;" parent="1" source="H_im_rN67ng9Ntnu-TIG-9" target="H_im_rN67ng9Ntnu-TIG-80" edge="1">
          <mxGeometry relative="1" as="geometry">
            <mxPoint x="390" y="300" as="sourcePoint" />
            <mxPoint x="383" y="270" as="targetPoint" />
          </mxGeometry>
        </mxCell>
        <mxCell id="H_im_rN67ng9Ntnu-TIG-99" style="rounded=0;orthogonalLoop=1;jettySize=auto;html=1;startArrow=classic;startFill=1;exitX=0.25;exitY=1;exitDx=0;exitDy=0;entryX=0.75;entryY=0;entryDx=0;entryDy=0;fillColor=#d0cee2;strokeColor=#56517e;" parent="1" source="H_im_rN67ng9Ntnu-TIG-9" target="H_im_rN67ng9Ntnu-TIG-86" edge="1">
          <mxGeometry relative="1" as="geometry">
            <mxPoint x="410" y="340" as="sourcePoint" />
            <mxPoint x="438" y="410" as="targetPoint" />
          </mxGeometry>
        </mxCell>
        <mxCell id="H_im_rN67ng9Ntnu-TIG-100" value="csv" style="rounded=0;whiteSpace=wrap;html=1;strokeColor=#9673a6;fillColor=#e1d5e7;fontSize=10;" parent="1" vertex="1">
          <mxGeometry x="180" y="350" width="70" height="30" as="geometry" />
        </mxCell>
        <mxCell id="H_im_rN67ng9Ntnu-TIG-101" value="adducts" style="rounded=0;whiteSpace=wrap;html=1;strokeColor=#9673a6;fillColor=#e1d5e7;fontSize=10;" parent="1" vertex="1">
          <mxGeometry x="70" y="230" width="70" height="30" as="geometry" />
        </mxCell>
        <mxCell id="H_im_rN67ng9Ntnu-TIG-102" value="hmdb" style="rounded=0;whiteSpace=wrap;html=1;strokeColor=#9673a6;fillColor=#e1d5e7;fontSize=10;" parent="1" vertex="1">
          <mxGeometry x="125" y="390" width="70" height="30" as="geometry" />
        </mxCell>
        <mxCell id="H_im_rN67ng9Ntnu-TIG-103" value="lipids" style="rounded=0;whiteSpace=wrap;html=1;strokeColor=#9673a6;fillColor=#e1d5e7;fontSize=10;" parent="1" vertex="1">
          <mxGeometry x="70" y="350" width="70" height="30" as="geometry" />
        </mxCell>
        <mxCell id="H_im_rN67ng9Ntnu-TIG-105" style="rounded=0;orthogonalLoop=1;jettySize=auto;html=1;startArrow=classic;startFill=1;exitX=0.75;exitY=1;exitDx=0;exitDy=0;fillColor=#d0cee2;strokeColor=#56517e;" parent="1" source="H_im_rN67ng9Ntnu-TIG-8" target="H_im_rN67ng9Ntnu-TIG-100" edge="1">
          <mxGeometry relative="1" as="geometry">
            <mxPoint x="370" y="340" as="sourcePoint" />
            <mxPoint x="333" y="360" as="targetPoint" />
          </mxGeometry>
        </mxCell>
        <mxCell id="H_im_rN67ng9Ntnu-TIG-107" style="rounded=0;orthogonalLoop=1;jettySize=auto;html=1;startArrow=classic;startFill=1;exitX=0.25;exitY=1;exitDx=0;exitDy=0;entryX=0.75;entryY=0;entryDx=0;entryDy=0;fillColor=#d0cee2;strokeColor=#56517e;" parent="1" source="H_im_rN67ng9Ntnu-TIG-8" target="H_im_rN67ng9Ntnu-TIG-103" edge="1">
          <mxGeometry relative="1" as="geometry">
            <mxPoint x="188" y="354" as="sourcePoint" />
            <mxPoint x="140" y="430" as="targetPoint" />
          </mxGeometry>
        </mxCell>
        <mxCell id="H_im_rN67ng9Ntnu-TIG-109" style="rounded=0;orthogonalLoop=1;jettySize=auto;html=1;exitX=0.25;exitY=0;exitDx=0;exitDy=0;entryX=0.75;entryY=1;entryDx=0;entryDy=0;startArrow=classic;startFill=1;fillColor=#d0cee2;strokeColor=#56517e;" parent="1" source="H_im_rN67ng9Ntnu-TIG-8" target="H_im_rN67ng9Ntnu-TIG-101" edge="1">
          <mxGeometry relative="1" as="geometry">
            <mxPoint x="90" y="430" as="sourcePoint" />
            <mxPoint x="90" y="490" as="targetPoint" />
          </mxGeometry>
        </mxCell>
        <mxCell id="H_im_rN67ng9Ntnu-TIG-110" value="&lt;font color=&quot;#330066&quot;&gt;blank&lt;/font&gt;&lt;div&gt;&lt;font color=&quot;#330066&quot;&gt;subtraction&lt;/font&gt;&lt;/div&gt;" style="rounded=0;whiteSpace=wrap;html=1;strokeColor=#9673a6;fillColor=#e1d5e7;fontSize=10;" parent="1" vertex="1">
          <mxGeometry x="710" y="50" width="70" height="30" as="geometry" />
        </mxCell>
        <mxCell id="H_im_rN67ng9Ntnu-TIG-112" value="" style="rounded=0;orthogonalLoop=1;jettySize=auto;html=1;exitX=0;exitY=0.5;exitDx=0;exitDy=0;dashed=1;entryX=1;entryY=0.75;entryDx=0;entryDy=0;startArrow=classic;startFill=1;endArrow=none;endFill=0;fillColor=#d0cee2;strokeColor=#56517e;" parent="1" source="H_im_rN67ng9Ntnu-TIG-54" target="H_im_rN67ng9Ntnu-TIG-46" edge="1">
          <mxGeometry relative="1" as="geometry">
            <mxPoint x="530" y="175" as="sourcePoint" />
            <mxPoint x="260" y="255" as="targetPoint" />
          </mxGeometry>
        </mxCell>
        <mxCell id="H_im_rN67ng9Ntnu-TIG-113" value="" style="rounded=0;orthogonalLoop=1;jettySize=auto;html=1;exitX=0;exitY=0.5;exitDx=0;exitDy=0;dashed=1;entryX=1;entryY=0.25;entryDx=0;entryDy=0;startArrow=classic;startFill=1;endArrow=none;endFill=0;fillColor=#d0cee2;strokeColor=#56517e;" parent="1" source="H_im_rN67ng9Ntnu-TIG-57" target="H_im_rN67ng9Ntnu-TIG-46" edge="1">
          <mxGeometry relative="1" as="geometry">
            <mxPoint x="539" y="65" as="sourcePoint" />
            <mxPoint x="370" y="63" as="targetPoint" />
          </mxGeometry>
        </mxCell>
        <mxCell id="H_im_rN67ng9Ntnu-TIG-114" value="" style="sketch=0;aspect=fixed;pointerEvents=1;shadow=0;dashed=0;html=1;strokeColor=none;labelPosition=center;verticalLabelPosition=bottom;verticalAlign=top;align=center;fillColor=#00188D;shape=mxgraph.mscae.general.graph" parent="1" vertex="1">
          <mxGeometry x="710" y="370" width="30" height="30" as="geometry" />
        </mxCell>
        <mxCell id="H_im_rN67ng9Ntnu-TIG-115" value="" style="sketch=0;aspect=fixed;pointerEvents=1;shadow=0;dashed=0;html=1;strokeColor=none;labelPosition=center;verticalLabelPosition=bottom;verticalAlign=top;align=center;fillColor=#00188D;shape=mxgraph.mscae.general.graph" parent="1" vertex="1">
          <mxGeometry x="770" y="320" width="30" height="30" as="geometry" />
        </mxCell>
        <mxCell id="H_im_rN67ng9Ntnu-TIG-116" value="" style="sketch=0;aspect=fixed;pointerEvents=1;shadow=0;dashed=0;html=1;strokeColor=none;labelPosition=center;verticalLabelPosition=bottom;verticalAlign=top;align=center;fillColor=#00188D;shape=mxgraph.mscae.general.graph" parent="1" vertex="1">
          <mxGeometry x="514" y="360" width="30" height="30" as="geometry" />
        </mxCell>
        <mxCell id="H_im_rN67ng9Ntnu-TIG-117" value="Heatmap" style="rounded=0;whiteSpace=wrap;html=1;strokeColor=#9673a6;fillColor=#e1d5e7;fontSize=10;" parent="1" vertex="1">
          <mxGeometry x="454" y="250" width="70" height="30" as="geometry" />
        </mxCell>
        <mxCell id="H_im_rN67ng9Ntnu-TIG-118" style="rounded=0;orthogonalLoop=1;jettySize=auto;html=1;startArrow=classic;startFill=1;exitX=0.75;exitY=0;exitDx=0;exitDy=0;entryX=0;entryY=0.75;entryDx=0;entryDy=0;fillColor=#d0cee2;strokeColor=#56517e;" parent="1" source="H_im_rN67ng9Ntnu-TIG-9" target="H_im_rN67ng9Ntnu-TIG-117" edge="1">
          <mxGeometry relative="1" as="geometry">
            <mxPoint x="410" y="300" as="sourcePoint" />
            <mxPoint x="412" y="250" as="targetPoint" />
          </mxGeometry>
        </mxCell>
        <mxCell id="H_im_rN67ng9Ntnu-TIG-119" value="" style="sketch=0;aspect=fixed;pointerEvents=1;shadow=0;dashed=0;html=1;strokeColor=none;labelPosition=center;verticalLabelPosition=bottom;verticalAlign=top;align=center;fillColor=#00188D;shape=mxgraph.mscae.general.graph" parent="1" vertex="1">
          <mxGeometry x="514" y="260" width="30" height="30" as="geometry" />
        </mxCell>
        <mxCell id="H_im_rN67ng9Ntnu-TIG-120" value="" style="sketch=0;aspect=fixed;pointerEvents=1;shadow=0;dashed=0;html=1;strokeColor=none;labelPosition=center;verticalLabelPosition=bottom;verticalAlign=top;align=center;fillColor=#00188D;shape=mxgraph.mscae.general.graph" parent="1" vertex="1">
          <mxGeometry x="770" y="110" width="30" height="30" as="geometry" />
        </mxCell>
        <mxCell id="H_im_rN67ng9Ntnu-TIG-122" value="" style="sketch=0;aspect=fixed;pointerEvents=1;shadow=0;dashed=0;html=1;strokeColor=none;labelPosition=center;verticalLabelPosition=bottom;verticalAlign=top;align=center;fillColor=#00188D;shape=mxgraph.mscae.general.graph" parent="1" vertex="1">
          <mxGeometry x="740" y="160" width="30" height="30" as="geometry" />
        </mxCell>
        <mxCell id="H_im_rN67ng9Ntnu-TIG-123" value="" style="sketch=0;aspect=fixed;pointerEvents=1;shadow=0;dashed=0;html=1;strokeColor=none;labelPosition=center;verticalLabelPosition=bottom;verticalAlign=top;align=center;fillColor=#00188D;shape=mxgraph.mscae.general.graph" parent="1" vertex="1">
          <mxGeometry x="474" y="400" width="30" height="30" as="geometry" />
        </mxCell>
        <mxCell id="H_im_rN67ng9Ntnu-TIG-124" value="" style="sketch=0;aspect=fixed;pointerEvents=1;shadow=0;dashed=0;html=1;strokeColor=none;labelPosition=center;verticalLabelPosition=bottom;verticalAlign=top;align=center;fillColor=#00188D;shape=mxgraph.mscae.general.graph" parent="1" vertex="1">
          <mxGeometry x="424" y="210" width="30" height="30" as="geometry" />
        </mxCell>
        <mxCell id="G2_bNNhkHwR8j1jc35j_-1" value="&lt;font color=&quot;#330066&quot; style=&quot;font-size: 10px;&quot;&gt;&lt;span style=&quot;font-size: 10px;&quot;&gt;blacklist&lt;/span&gt;&lt;/font&gt;" style="rounded=0;whiteSpace=wrap;html=1;strokeColor=#9673a6;fillColor=#e1d5e7;fontSize=10;" parent="1" vertex="1">
          <mxGeometry x="650" y="10" width="70" height="30" as="geometry" />
        </mxCell>
        <mxCell id="G2_bNNhkHwR8j1jc35j_-2" style="rounded=0;orthogonalLoop=1;jettySize=auto;html=1;exitX=0.75;exitY=0;exitDx=0;exitDy=0;entryX=0.25;entryY=1;entryDx=0;entryDy=0;startArrow=classic;startFill=1;fillColor=#d0cee2;strokeColor=#56517e;" parent="1" source="H_im_rN67ng9Ntnu-TIG-6" target="G2_bNNhkHwR8j1jc35j_-1" edge="1">
          <mxGeometry relative="1" as="geometry">
            <mxPoint x="630" y="100" as="sourcePoint" />
            <mxPoint x="589" y="50" as="targetPoint" />
          </mxGeometry>
        </mxCell>
        <mxCell id="fzQ5EZh8jWBMia80PaFk-1" value="Compounds" style="ellipse;whiteSpace=wrap;html=1;" parent="1" vertex="1">
          <mxGeometry x="10" y="295" width="80" height="30" as="geometry" />
        </mxCell>
        <mxCell id="zoK7hTAPk3AykA1J95tn-3" value="" style="whiteSpace=wrap;html=1;shape=mxgraph.basic.document" parent="1" vertex="1">
          <mxGeometry x="70" y="60" width="30" height="40" as="geometry" />
        </mxCell>
        <mxCell id="zoK7hTAPk3AykA1J95tn-4" value="" style="whiteSpace=wrap;html=1;shape=mxgraph.basic.document" parent="1" vertex="1">
          <mxGeometry x="80" y="70" width="30" height="40" as="geometry" />
        </mxCell>
        <mxCell id="zoK7hTAPk3AykA1J95tn-5" value="" style="whiteSpace=wrap;html=1;shape=mxgraph.basic.document" parent="1" vertex="1">
          <mxGeometry x="90" y="80" width="30" height="40" as="geometry" />
        </mxCell>
        <mxCell id="zoK7hTAPk3AykA1J95tn-6" value="files.mzml" style="whiteSpace=wrap;html=1;shape=mxgraph.basic.document;labelPosition=center;verticalLabelPosition=bottom;align=center;verticalAlign=top;" parent="1" vertex="1">
          <mxGeometry x="100" y="90" width="30" height="40" as="geometry" />
        </mxCell>
      </root>
    </mxGraphModel>
  </diagram>
  <diagram name="medusa_detailed" id="DOBXTkU44riz8Ig5bA6L">
    <mxGraphModel dx="1593" dy="556" grid="1" gridSize="10" guides="1" tooltips="1" connect="1" arrows="1" fold="1" page="1" pageScale="1" pageWidth="827" pageHeight="1169" math="0" shadow="0">
      <root>
        <mxCell id="FAiBACSbsbh2R8-8JHN5-0" />
        <mxCell id="FAiBACSbsbh2R8-8JHN5-1" parent="FAiBACSbsbh2R8-8JHN5-0" />
        <mxCell id="uWoivs7xwVCzCgMOGaIE-31" value="Identify" style="rounded=0;whiteSpace=wrap;html=1;fillColor=#f5f5f5;fontColor=#333333;strokeColor=#666666;dashed=1;align=center;verticalAlign=top;rotation=-90;" parent="FAiBACSbsbh2R8-8JHN5-1" vertex="1">
          <mxGeometry x="111.74" y="641.25" width="198.72" height="340" as="geometry" />
        </mxCell>
        <mxCell id="GNK7EjtAxi85l2BKIZKV-14" value="Stats" style="rounded=0;whiteSpace=wrap;html=1;fillColor=#f5f5f5;fontColor=#333333;strokeColor=#666666;dashed=1;align=center;verticalAlign=top;rotation=-90;" parent="FAiBACSbsbh2R8-8JHN5-1" vertex="1">
          <mxGeometry x="120.89" y="56.79" width="525.73" height="685.31" as="geometry" />
        </mxCell>
        <mxCell id="GNK7EjtAxi85l2BKIZKV-26" value="&amp;nbsp; mzlog_analysis_volcano_magic" style="rounded=0;whiteSpace=wrap;html=1;fillColor=#d0cee2;strokeColor=#190033;verticalAlign=top;align=left;arcSize=9;sketch=1;curveFitting=1;jiggle=2;" parent="FAiBACSbsbh2R8-8JHN5-1" vertex="1">
          <mxGeometry x="200" y="244.24" width="325" height="150" as="geometry" />
        </mxCell>
        <mxCell id="sbnSw0-tkLwKyBysIlNG-11" value="Post Processing" style="rounded=0;whiteSpace=wrap;html=1;fillColor=#f5f5f5;fontColor=#333333;strokeColor=#666666;dashed=1;align=center;verticalAlign=top;rotation=-90;" parent="FAiBACSbsbh2R8-8JHN5-1" vertex="1">
          <mxGeometry x="-499.47" y="646.09" width="253.92" height="506.95" as="geometry" />
        </mxCell>
        <mxCell id="sbnSw0-tkLwKyBysIlNG-12" value="&amp;nbsp; mz_post_magic" style="rounded=0;whiteSpace=wrap;html=1;fillColor=#d0cee2;strokeColor=#190033;verticalAlign=top;align=left;arcSize=10;sketch=1;curveFitting=1;jiggle=2;" parent="FAiBACSbsbh2R8-8JHN5-1" vertex="1">
          <mxGeometry x="-466" y="782.16" width="330" height="214.36" as="geometry" />
        </mxCell>
        <mxCell id="v9AVE5IH6e-QtJ-1Ino3-5" value="Filtering" style="rounded=0;whiteSpace=wrap;html=1;fillColor=#f5f5f5;fontColor=#333333;strokeColor=#666666;dashed=1;align=center;verticalAlign=top;rotation=-90;" parent="FAiBACSbsbh2R8-8JHN5-1" vertex="1">
          <mxGeometry x="-569.9" y="217.94" width="447.82" height="560" as="geometry" />
        </mxCell>
        <mxCell id="v9AVE5IH6e-QtJ-1Ino3-4" value="Data Extraction" style="rounded=0;whiteSpace=wrap;html=1;fillColor=#f5f5f5;fontColor=#333333;strokeColor=#666666;dashed=1;align=center;verticalAlign=top;rotation=-90;" parent="FAiBACSbsbh2R8-8JHN5-1" vertex="1">
          <mxGeometry x="-451" y="-95.75999999999999" width="120" height="470" as="geometry" />
        </mxCell>
        <mxCell id="zktjRsKrJk29xgStAw23-18" value="&amp;nbsp;mz_quality_magic" style="rounded=0;whiteSpace=wrap;html=1;fillColor=#d0cee2;strokeColor=#190033;verticalAlign=top;align=left;sketch=1;curveFitting=1;jiggle=2;" parent="FAiBACSbsbh2R8-8JHN5-1" vertex="1">
          <mxGeometry x="-466" y="286.52" width="390" height="120" as="geometry" />
        </mxCell>
        <mxCell id="zktjRsKrJk29xgStAw23-5" value="&amp;nbsp; mzml_extract_magic" style="rounded=0;whiteSpace=wrap;html=1;fillColor=#d0cee2;strokeColor=#190033;verticalAlign=top;align=left;glass=0;sketch=1;curveFitting=1;jiggle=2;" parent="FAiBACSbsbh2R8-8JHN5-1" vertex="1">
          <mxGeometry x="-466" y="94.24000000000001" width="300" height="90" as="geometry" />
        </mxCell>
        <mxCell id="FAiBACSbsbh2R8-8JHN5-3" style="rounded=0;orthogonalLoop=1;jettySize=auto;html=1;entryX=0;entryY=0.5;entryDx=0;entryDy=0;startArrow=classic;startFill=1;fillColor=#d0cee2;strokeColor=#56517e;exitX=1;exitY=0.75;exitDx=0;exitDy=0;" parent="FAiBACSbsbh2R8-8JHN5-1" source="zktjRsKrJk29xgStAw23-0" target="FAiBACSbsbh2R8-8JHN5-71" edge="1">
          <mxGeometry relative="1" as="geometry">
            <mxPoint x="-149" y="186.52" as="sourcePoint" />
          </mxGeometry>
        </mxCell>
        <mxCell id="FAiBACSbsbh2R8-8JHN5-5" style="edgeStyle=orthogonalEdgeStyle;rounded=0;orthogonalLoop=1;jettySize=auto;html=1;exitX=0.5;exitY=1;exitDx=0;exitDy=0;strokeWidth=3;" parent="FAiBACSbsbh2R8-8JHN5-1" source="FAiBACSbsbh2R8-8JHN5-7" target="FAiBACSbsbh2R8-8JHN5-17" edge="1">
          <mxGeometry relative="1" as="geometry" />
        </mxCell>
        <mxCell id="FAiBACSbsbh2R8-8JHN5-6" style="rounded=0;orthogonalLoop=1;jettySize=auto;html=1;entryX=1;entryY=0.5;entryDx=0;entryDy=0;startArrow=classic;startFill=1;fillColor=#d0cee2;strokeColor=#56517e;exitX=0;exitY=0.5;exitDx=0;exitDy=0;" parent="FAiBACSbsbh2R8-8JHN5-1" source="FAiBACSbsbh2R8-8JHN5-24" target="FAiBACSbsbh2R8-8JHN5-7" edge="1">
          <mxGeometry relative="1" as="geometry">
            <mxPoint x="-366" y="119.24000000000001" as="sourcePoint" />
          </mxGeometry>
        </mxCell>
        <mxCell id="FAiBACSbsbh2R8-8JHN5-7" value="&lt;b&gt;&lt;font color=&quot;#e5ccff&quot;&gt;mzml&lt;/font&gt;&lt;/b&gt;&lt;div&gt;&lt;b&gt;&lt;font color=&quot;#e5ccff&quot;&gt;extract_centroid&lt;/font&gt;&lt;/b&gt;&lt;/div&gt;" style="rounded=1;whiteSpace=wrap;html=1;fillColor=#4C0099;strokeColor=#190033;fontColor=#330066;" parent="FAiBACSbsbh2R8-8JHN5-1" vertex="1">
          <mxGeometry x="-586" y="119.24000000000001" width="100" height="40" as="geometry" />
        </mxCell>
        <mxCell id="FAiBACSbsbh2R8-8JHN5-13" value="&lt;font&gt;mz&lt;/font&gt;&lt;div&gt;&lt;font&gt;post_processing&lt;/font&gt;&lt;/div&gt;" style="rounded=1;whiteSpace=wrap;html=1;fontStyle=1;fillColor=#9933FF;strokeColor=#330066;fontColor=#E5CCFF;" parent="FAiBACSbsbh2R8-8JHN5-1" vertex="1">
          <mxGeometry x="-586" y="861.52" width="100" height="40" as="geometry" />
        </mxCell>
        <mxCell id="FAiBACSbsbh2R8-8JHN5-14" style="edgeStyle=orthogonalEdgeStyle;rounded=0;orthogonalLoop=1;jettySize=auto;html=1;exitX=0.5;exitY=1;exitDx=0;exitDy=0;entryX=0.5;entryY=0;entryDx=0;entryDy=0;shadow=0;strokeWidth=3;" parent="FAiBACSbsbh2R8-8JHN5-1" target="FAiBACSbsbh2R8-8JHN5-7" edge="1">
          <mxGeometry relative="1" as="geometry">
            <mxPoint x="-536" y="69.24000000000001" as="sourcePoint" />
          </mxGeometry>
        </mxCell>
        <mxCell id="FAiBACSbsbh2R8-8JHN5-16" style="edgeStyle=orthogonalEdgeStyle;rounded=0;orthogonalLoop=1;jettySize=auto;html=1;exitX=0.5;exitY=1;exitDx=0;exitDy=0;entryX=0.5;entryY=0;entryDx=0;entryDy=0;strokeWidth=3;" parent="FAiBACSbsbh2R8-8JHN5-1" source="zktjRsKrJk29xgStAw23-3" target="FAiBACSbsbh2R8-8JHN5-4" edge="1">
          <mxGeometry relative="1" as="geometry" />
        </mxCell>
        <mxCell id="FAiBACSbsbh2R8-8JHN5-17" value="List[ MzObjPos, MzObjNeg ]" style="ellipse;whiteSpace=wrap;html=1;" parent="FAiBACSbsbh2R8-8JHN5-1" vertex="1">
          <mxGeometry x="-628.5" y="209.24" width="185" height="30" as="geometry" />
        </mxCell>
        <mxCell id="FAiBACSbsbh2R8-8JHN5-18" style="edgeStyle=orthogonalEdgeStyle;rounded=0;orthogonalLoop=1;jettySize=auto;html=1;exitX=0.5;exitY=1;exitDx=0;exitDy=0;entryX=0.5;entryY=0;entryDx=0;entryDy=0;strokeWidth=3;" parent="FAiBACSbsbh2R8-8JHN5-1" source="v9AVE5IH6e-QtJ-1Ino3-29" target="FAiBACSbsbh2R8-8JHN5-13" edge="1">
          <mxGeometry relative="1" as="geometry">
            <mxPoint x="214" y="386.52" as="sourcePoint" />
          </mxGeometry>
        </mxCell>
        <mxCell id="FAiBACSbsbh2R8-8JHN5-19" value="MzObj" style="ellipse;whiteSpace=wrap;html=1;" parent="FAiBACSbsbh2R8-8JHN5-1" vertex="1">
          <mxGeometry x="-561" y="451.52" width="50" height="30" as="geometry" />
        </mxCell>
        <mxCell id="YARay-SOw2621ZsbXlre-2" style="edgeStyle=orthogonalEdgeStyle;rounded=0;orthogonalLoop=1;jettySize=auto;html=1;exitX=1;exitY=0.5;exitDx=0;exitDy=0;entryX=0;entryY=0.5;entryDx=0;entryDy=0;startArrow=classic;startFill=1;fillColor=#d0cee2;strokeColor=#56517e;" parent="FAiBACSbsbh2R8-8JHN5-1" source="FAiBACSbsbh2R8-8JHN5-24" target="FAiBACSbsbh2R8-8JHN5-26" edge="1">
          <mxGeometry relative="1" as="geometry" />
        </mxCell>
        <mxCell id="YARay-SOw2621ZsbXlre-3" style="edgeStyle=orthogonalEdgeStyle;rounded=0;orthogonalLoop=1;jettySize=auto;html=1;exitX=1;exitY=0.5;exitDx=0;exitDy=0;entryX=0;entryY=0.5;entryDx=0;entryDy=0;startArrow=classic;startFill=1;fillColor=#d0cee2;strokeColor=#56517e;" parent="FAiBACSbsbh2R8-8JHN5-1" source="FAiBACSbsbh2R8-8JHN5-24" target="YARay-SOw2621ZsbXlre-1" edge="1">
          <mxGeometry relative="1" as="geometry" />
        </mxCell>
        <mxCell id="FAiBACSbsbh2R8-8JHN5-24" value="&lt;font color=&quot;#330066&quot;&gt;mzml_extract_file&lt;/font&gt;" style="rounded=0;whiteSpace=wrap;html=1;strokeColor=#9673a6;fillColor=#e1d5e7;fontSize=10;" parent="FAiBACSbsbh2R8-8JHN5-1" vertex="1">
          <mxGeometry x="-446" y="124.24000000000001" width="90" height="30" as="geometry" />
        </mxCell>
        <mxCell id="FAiBACSbsbh2R8-8JHN5-26" value="&lt;font color=&quot;#330066&quot;&gt;mzT_filtering&lt;/font&gt;" style="rounded=0;whiteSpace=wrap;html=1;strokeColor=#9673a6;fillColor=#e1d5e7;fontSize=10;" parent="FAiBACSbsbh2R8-8JHN5-1" vertex="1">
          <mxGeometry x="-276" y="104.24000000000001" width="90" height="30" as="geometry" />
        </mxCell>
        <mxCell id="FAiBACSbsbh2R8-8JHN5-32" value="&lt;font color=&quot;#330066&quot;&gt;mz_filter_low_intensity&lt;/font&gt;" style="rounded=0;whiteSpace=wrap;html=1;strokeColor=#9673a6;fillColor=#e1d5e7;fontSize=10;" parent="FAiBACSbsbh2R8-8JHN5-1" vertex="1">
          <mxGeometry x="-126" y="139.24" width="110" height="30" as="geometry" />
        </mxCell>
        <mxCell id="FAiBACSbsbh2R8-8JHN5-34" value="&lt;font color=&quot;#330066&quot;&gt;mz_filter_missingness&lt;/font&gt;" style="rounded=0;whiteSpace=wrap;html=1;strokeColor=#9673a6;fillColor=#e1d5e7;fontSize=10;" parent="FAiBACSbsbh2R8-8JHN5-1" vertex="1">
          <mxGeometry x="-126" y="89.24000000000001" width="110" height="30" as="geometry" />
        </mxCell>
        <mxCell id="FAiBACSbsbh2R8-8JHN5-42" value="&lt;span style=&quot;color: rgb(51, 0, 102);&quot;&gt;mz_post_imputation&lt;/span&gt;" style="rounded=0;whiteSpace=wrap;html=1;strokeColor=#9673a6;fillColor=#e1d5e7;fontSize=10;" parent="FAiBACSbsbh2R8-8JHN5-1" vertex="1">
          <mxGeometry x="-251" y="794.24" width="115" height="30" as="geometry" />
        </mxCell>
        <mxCell id="FAiBACSbsbh2R8-8JHN5-43" style="rounded=0;orthogonalLoop=1;jettySize=auto;html=1;startArrow=classic;startFill=1;exitX=0.75;exitY=0;exitDx=0;exitDy=0;fillColor=#d0cee2;strokeColor=#56517e;" parent="FAiBACSbsbh2R8-8JHN5-1" source="FAiBACSbsbh2R8-8JHN5-13" edge="1">
          <mxGeometry relative="1" as="geometry">
            <mxPoint x="-487" y="807.04" as="sourcePoint" />
            <mxPoint x="-251" y="808" as="targetPoint" />
            <Array as="points">
              <mxPoint x="-456" y="807.52" />
            </Array>
          </mxGeometry>
        </mxCell>
        <mxCell id="FAiBACSbsbh2R8-8JHN5-44" value="&lt;font color=&quot;#330066&quot;&gt;mz_post_pivot_longer&lt;/font&gt;" style="rounded=0;whiteSpace=wrap;html=1;strokeColor=#9673a6;fillColor=#e1d5e7;fontSize=10;" parent="FAiBACSbsbh2R8-8JHN5-1" vertex="1">
          <mxGeometry x="-441" y="856.52" width="120" height="30" as="geometry" />
        </mxCell>
        <mxCell id="FAiBACSbsbh2R8-8JHN5-45" style="rounded=0;orthogonalLoop=1;jettySize=auto;html=1;startArrow=none;startFill=0;entryX=0;entryY=0.5;entryDx=0;entryDy=0;fillColor=#d0cee2;strokeColor=#56517e;exitX=1;exitY=0.75;exitDx=0;exitDy=0;" parent="FAiBACSbsbh2R8-8JHN5-1" source="FAiBACSbsbh2R8-8JHN5-13" target="FAiBACSbsbh2R8-8JHN5-44" edge="1">
          <mxGeometry relative="1" as="geometry">
            <mxPoint x="-486" y="826.52" as="sourcePoint" />
            <mxPoint x="264" y="439.52" as="targetPoint" />
            <Array as="points" />
          </mxGeometry>
        </mxCell>
        <mxCell id="FAiBACSbsbh2R8-8JHN5-46" value="&lt;font color=&quot;#330066&quot;&gt;mz_post_normalization&lt;/font&gt;" style="rounded=0;whiteSpace=wrap;html=1;strokeColor=#9673a6;fillColor=#e1d5e7;fontSize=10;" parent="FAiBACSbsbh2R8-8JHN5-1" vertex="1">
          <mxGeometry x="-441" y="816.52" width="120" height="30" as="geometry" />
        </mxCell>
        <mxCell id="FAiBACSbsbh2R8-8JHN5-48" value="&lt;font color=&quot;#330066&quot;&gt;mz_post_log&lt;/font&gt;" style="rounded=0;whiteSpace=wrap;html=1;strokeColor=#9673a6;fillColor=#e1d5e7;fontSize=10;" parent="FAiBACSbsbh2R8-8JHN5-1" vertex="1">
          <mxGeometry x="-253" y="836.52" width="77.5" height="30" as="geometry" />
        </mxCell>
        <mxCell id="FAiBACSbsbh2R8-8JHN5-49" style="rounded=0;orthogonalLoop=1;jettySize=auto;html=1;startArrow=classic;startFill=1;entryX=0;entryY=0.5;entryDx=0;entryDy=0;exitX=1;exitY=0.5;exitDx=0;exitDy=0;fillColor=#d0cee2;strokeColor=#56517e;" parent="FAiBACSbsbh2R8-8JHN5-1" source="FAiBACSbsbh2R8-8JHN5-13" target="FAiBACSbsbh2R8-8JHN5-48" edge="1">
          <mxGeometry relative="1" as="geometry">
            <mxPoint x="124" y="506.52" as="sourcePoint" />
            <mxPoint x="164" y="491.52" as="targetPoint" />
            <Array as="points">
              <mxPoint x="-446" y="851.52" />
            </Array>
          </mxGeometry>
        </mxCell>
        <mxCell id="zktjRsKrJk29xgStAw23-11" style="edgeStyle=orthogonalEdgeStyle;rounded=0;orthogonalLoop=1;jettySize=auto;html=1;exitX=0.5;exitY=0;exitDx=0;exitDy=0;entryX=0;entryY=0.5;entryDx=0;entryDy=0;fillColor=#d0cee2;strokeColor=#56517e;" parent="FAiBACSbsbh2R8-8JHN5-1" source="zktjRsKrJk29xgStAw23-9" target="zktjRsKrJk29xgStAw23-6" edge="1">
          <mxGeometry relative="1" as="geometry">
            <Array as="points">
              <mxPoint x="-273" y="326.52" />
            </Array>
          </mxGeometry>
        </mxCell>
        <mxCell id="FAiBACSbsbh2R8-8JHN5-71" value="&lt;font color=&quot;#330066&quot;&gt;mz_quality_metrics&lt;/font&gt;" style="rounded=0;whiteSpace=wrap;html=1;strokeColor=#9673a6;fillColor=#e1d5e7;fontSize=10;" parent="FAiBACSbsbh2R8-8JHN5-1" vertex="1">
          <mxGeometry x="-436" y="361.52" width="100" height="30" as="geometry" />
        </mxCell>
        <mxCell id="FAiBACSbsbh2R8-8JHN5-72" value="" style="rounded=0;orthogonalLoop=1;jettySize=auto;html=1;exitX=0;exitY=0.5;exitDx=0;exitDy=0;dashed=1;entryX=1;entryY=0.75;entryDx=0;entryDy=0;startArrow=classic;startFill=1;endArrow=none;endFill=0;fillColor=#d0cee2;strokeColor=#56517e;" parent="FAiBACSbsbh2R8-8JHN5-1" source="FAiBACSbsbh2R8-8JHN5-32" target="FAiBACSbsbh2R8-8JHN5-26" edge="1">
          <mxGeometry relative="1" as="geometry">
            <mxPoint x="104" y="244.24" as="sourcePoint" />
            <mxPoint x="-166" y="324.24" as="targetPoint" />
          </mxGeometry>
        </mxCell>
        <mxCell id="FAiBACSbsbh2R8-8JHN5-73" value="" style="rounded=0;orthogonalLoop=1;jettySize=auto;html=1;exitX=0;exitY=0.5;exitDx=0;exitDy=0;dashed=1;entryX=1;entryY=0.25;entryDx=0;entryDy=0;startArrow=classic;startFill=1;endArrow=none;endFill=0;fillColor=#d0cee2;strokeColor=#56517e;" parent="FAiBACSbsbh2R8-8JHN5-1" source="FAiBACSbsbh2R8-8JHN5-34" target="FAiBACSbsbh2R8-8JHN5-26" edge="1">
          <mxGeometry relative="1" as="geometry">
            <mxPoint x="113" y="134.24" as="sourcePoint" />
            <mxPoint x="-56" y="132.24" as="targetPoint" />
          </mxGeometry>
        </mxCell>
        <mxCell id="YARay-SOw2621ZsbXlre-0" value="MzT" style="ellipse;whiteSpace=wrap;html=1;fontSize=10;" parent="FAiBACSbsbh2R8-8JHN5-1" vertex="1">
          <mxGeometry x="-341" y="124.24000000000001" width="55" height="30" as="geometry" />
        </mxCell>
        <mxCell id="YARay-SOw2621ZsbXlre-1" value="&lt;font color=&quot;#330066&quot;&gt;mzT_squash_time&lt;/font&gt;" style="rounded=0;whiteSpace=wrap;html=1;strokeColor=#9673a6;fillColor=#e1d5e7;fontSize=10;" parent="FAiBACSbsbh2R8-8JHN5-1" vertex="1">
          <mxGeometry x="-276" y="144.24" width="90" height="30" as="geometry" />
        </mxCell>
        <mxCell id="zktjRsKrJk29xgStAw23-1" value="" style="edgeStyle=orthogonalEdgeStyle;rounded=0;orthogonalLoop=1;jettySize=auto;html=1;exitX=0.5;exitY=1;exitDx=0;exitDy=0;entryX=0.5;entryY=0;entryDx=0;entryDy=0;strokeWidth=3;" parent="FAiBACSbsbh2R8-8JHN5-1" source="uWoivs7xwVCzCgMOGaIE-50" target="zktjRsKrJk29xgStAw23-0" edge="1">
          <mxGeometry relative="1" as="geometry">
            <mxPoint x="-536" y="266.52" as="sourcePoint" />
            <mxPoint x="24" y="206.52" as="targetPoint" />
          </mxGeometry>
        </mxCell>
        <mxCell id="zktjRsKrJk29xgStAw23-0" value="&lt;font&gt;mz&lt;/font&gt;&lt;div&gt;&lt;font&gt;quality_check&lt;/font&gt;&lt;/div&gt;" style="rounded=1;whiteSpace=wrap;html=1;fontStyle=1;fillColor=#6600CC;fontColor=#E5CCFF;strokeColor=#190033;" parent="FAiBACSbsbh2R8-8JHN5-1" vertex="1">
          <mxGeometry x="-586" y="306.52" width="100" height="40" as="geometry" />
        </mxCell>
        <mxCell id="zktjRsKrJk29xgStAw23-4" value="" style="edgeStyle=orthogonalEdgeStyle;rounded=0;orthogonalLoop=1;jettySize=auto;html=1;exitX=0.5;exitY=1;exitDx=0;exitDy=0;entryX=0.5;entryY=0;entryDx=0;entryDy=0;strokeWidth=3;" parent="FAiBACSbsbh2R8-8JHN5-1" source="zktjRsKrJk29xgStAw23-0" target="zktjRsKrJk29xgStAw23-3" edge="1">
          <mxGeometry relative="1" as="geometry">
            <mxPoint x="48" y="206.52" as="sourcePoint" />
            <mxPoint x="174" y="206.52" as="targetPoint" />
          </mxGeometry>
        </mxCell>
        <mxCell id="zktjRsKrJk29xgStAw23-3" value="MzObj" style="ellipse;whiteSpace=wrap;html=1;" parent="FAiBACSbsbh2R8-8JHN5-1" vertex="1">
          <mxGeometry x="-561" y="366.52" width="50" height="30" as="geometry" />
        </mxCell>
        <mxCell id="zktjRsKrJk29xgStAw23-14" style="edgeStyle=orthogonalEdgeStyle;rounded=0;orthogonalLoop=1;jettySize=auto;html=1;exitX=0.5;exitY=1;exitDx=0;exitDy=0;entryX=0.5;entryY=0;entryDx=0;entryDy=0;" parent="FAiBACSbsbh2R8-8JHN5-1" source="zktjRsKrJk29xgStAw23-6" target="zktjRsKrJk29xgStAw23-7" edge="1">
          <mxGeometry relative="1" as="geometry" />
        </mxCell>
        <mxCell id="zktjRsKrJk29xgStAw23-6" value="&lt;font color=&quot;#330066&quot;&gt;mzmetrics_quality_plot_all&lt;/font&gt;" style="rounded=0;whiteSpace=wrap;html=1;strokeColor=#9673a6;fillColor=#e1d5e7;fontSize=10;" parent="FAiBACSbsbh2R8-8JHN5-1" vertex="1">
          <mxGeometry x="-231" y="311.52" width="141" height="30" as="geometry" />
        </mxCell>
        <mxCell id="zktjRsKrJk29xgStAw23-8" value="&lt;font color=&quot;#330066&quot;&gt;mz_quality_meta_check&lt;/font&gt;" style="rounded=0;whiteSpace=wrap;html=1;strokeColor=#9673a6;fillColor=#e1d5e7;fontSize=10;" parent="FAiBACSbsbh2R8-8JHN5-1" vertex="1">
          <mxGeometry x="-436" y="311.52" width="141" height="30" as="geometry" />
        </mxCell>
        <mxCell id="zktjRsKrJk29xgStAw23-17" style="rounded=0;orthogonalLoop=1;jettySize=auto;html=1;startArrow=classic;startFill=1;fillColor=#d0cee2;strokeColor=#56517e;exitX=1;exitY=0.25;exitDx=0;exitDy=0;entryX=0;entryY=0.5;entryDx=0;entryDy=0;" parent="FAiBACSbsbh2R8-8JHN5-1" source="zktjRsKrJk29xgStAw23-0" target="zktjRsKrJk29xgStAw23-8" edge="1">
          <mxGeometry relative="1" as="geometry">
            <mxPoint x="-172" y="186.52" as="sourcePoint" />
            <mxPoint x="-196" y="96.52000000000001" as="targetPoint" />
            <Array as="points" />
          </mxGeometry>
        </mxCell>
        <mxCell id="zktjRsKrJk29xgStAw23-21" value="" style="edgeStyle=orthogonalEdgeStyle;rounded=0;orthogonalLoop=1;jettySize=auto;html=1;entryX=0;entryY=0.5;entryDx=0;entryDy=0;startArrow=classic;startFill=1;endArrow=none;endFill=0;fillColor=#d0cee2;strokeColor=#56517e;" parent="FAiBACSbsbh2R8-8JHN5-1" source="FAiBACSbsbh2R8-8JHN5-71" target="zktjRsKrJk29xgStAw23-9" edge="1">
          <mxGeometry relative="1" as="geometry">
            <mxPoint x="-323.25" y="366.52" as="sourcePoint" />
            <mxPoint x="-204.25" y="366.52" as="targetPoint" />
          </mxGeometry>
        </mxCell>
        <mxCell id="zktjRsKrJk29xgStAw23-9" value="mzMetrics" style="ellipse;whiteSpace=wrap;html=1;fontSize=10;" parent="FAiBACSbsbh2R8-8JHN5-1" vertex="1">
          <mxGeometry x="-308.5" y="361.52" width="55" height="30" as="geometry" />
        </mxCell>
        <mxCell id="v9AVE5IH6e-QtJ-1Ino3-10" style="rounded=0;orthogonalLoop=1;jettySize=auto;html=1;exitX=0;exitY=0.5;exitDx=0;exitDy=0;entryX=1;entryY=0.5;entryDx=0;entryDy=0;startArrow=classic;startFill=1;endArrow=none;endFill=0;fillColor=#d0cee2;strokeColor=#56517e;" parent="FAiBACSbsbh2R8-8JHN5-1" source="zktjRsKrJk29xgStAw23-7" target="zktjRsKrJk29xgStAw23-9" edge="1">
          <mxGeometry relative="1" as="geometry" />
        </mxCell>
        <mxCell id="zktjRsKrJk29xgStAw23-7" value="&lt;font color=&quot;#330066&quot;&gt;&amp;nbsp; mzmetrics_quality_plot&lt;/font&gt;" style="rounded=0;whiteSpace=wrap;html=1;strokeColor=#9673a6;fillColor=#e1d5e7;fontSize=10;align=left;" parent="FAiBACSbsbh2R8-8JHN5-1" vertex="1">
          <mxGeometry x="-231" y="361.52" width="141" height="30" as="geometry" />
        </mxCell>
        <mxCell id="v9AVE5IH6e-QtJ-1Ino3-11" value="&lt;font color=&quot;#330066&quot;&gt;mz_subtraction&lt;/font&gt;" style="rounded=0;whiteSpace=wrap;html=1;strokeColor=#9673a6;fillColor=#e1d5e7;fontSize=10;" parent="FAiBACSbsbh2R8-8JHN5-1" vertex="1">
          <mxGeometry x="-456" y="426.52" width="105" height="25" as="geometry" />
        </mxCell>
        <mxCell id="v9AVE5IH6e-QtJ-1Ino3-12" style="rounded=0;orthogonalLoop=1;jettySize=auto;html=1;entryX=0;entryY=0.5;entryDx=0;entryDy=0;startArrow=classic;startFill=1;fillColor=#d0cee2;strokeColor=#56517e;exitX=1;exitY=0.5;exitDx=0;exitDy=0;" parent="FAiBACSbsbh2R8-8JHN5-1" source="FAiBACSbsbh2R8-8JHN5-4" target="v9AVE5IH6e-QtJ-1Ino3-11" edge="1">
          <mxGeometry relative="1" as="geometry">
            <mxPoint x="-476" y="346.52" as="sourcePoint" />
            <mxPoint x="-417" y="376.52" as="targetPoint" />
          </mxGeometry>
        </mxCell>
        <mxCell id="v9AVE5IH6e-QtJ-1Ino3-13" value="&lt;font&gt;mz&lt;/font&gt;&lt;div&gt;&lt;font&gt;mass_defect&lt;/font&gt;&lt;/div&gt;" style="rounded=1;whiteSpace=wrap;html=1;fontStyle=1;fillColor=#6600CC;fontColor=#E5CCFF;strokeColor=#190033;" parent="FAiBACSbsbh2R8-8JHN5-1" vertex="1">
          <mxGeometry x="-576" y="476.52" width="80" height="35" as="geometry" />
        </mxCell>
        <mxCell id="v9AVE5IH6e-QtJ-1Ino3-15" value="&lt;font color=&quot;#330066&quot;&gt;mz_mass_defect&lt;/font&gt;" style="rounded=0;whiteSpace=wrap;html=1;strokeColor=#9673a6;fillColor=#e1d5e7;fontSize=10;" parent="FAiBACSbsbh2R8-8JHN5-1" vertex="1">
          <mxGeometry x="-456" y="481.52" width="105" height="25" as="geometry" />
        </mxCell>
        <mxCell id="v9AVE5IH6e-QtJ-1Ino3-16" style="rounded=0;orthogonalLoop=1;jettySize=auto;html=1;entryX=0;entryY=0.5;entryDx=0;entryDy=0;startArrow=classic;startFill=1;fillColor=#d0cee2;strokeColor=#56517e;exitX=1;exitY=0.5;exitDx=0;exitDy=0;" parent="FAiBACSbsbh2R8-8JHN5-1" source="v9AVE5IH6e-QtJ-1Ino3-13" target="v9AVE5IH6e-QtJ-1Ino3-15" edge="1">
          <mxGeometry relative="1" as="geometry">
            <mxPoint x="-486" y="474.52" as="sourcePoint" />
            <mxPoint x="-446" y="474.52" as="targetPoint" />
          </mxGeometry>
        </mxCell>
        <mxCell id="v9AVE5IH6e-QtJ-1Ino3-19" value="" style="edgeStyle=orthogonalEdgeStyle;rounded=0;orthogonalLoop=1;jettySize=auto;html=1;exitX=0.5;exitY=1;exitDx=0;exitDy=0;entryX=0.5;entryY=0;entryDx=0;entryDy=0;strokeWidth=3;" parent="FAiBACSbsbh2R8-8JHN5-1" source="v9AVE5IH6e-QtJ-1Ino3-17" target="v9AVE5IH6e-QtJ-1Ino3-18" edge="1">
          <mxGeometry relative="1" as="geometry">
            <mxPoint x="-536" y="588.52" as="sourcePoint" />
            <mxPoint x="-536" y="896.52" as="targetPoint" />
          </mxGeometry>
        </mxCell>
        <mxCell id="v9AVE5IH6e-QtJ-1Ino3-18" value="&lt;font&gt;mz&lt;/font&gt;&lt;div&gt;&lt;font&gt;filter&lt;/font&gt;&lt;/div&gt;" style="rounded=1;whiteSpace=wrap;html=1;fontStyle=1;fillColor=#6600CC;fontColor=#E5CCFF;strokeColor=#190033;" parent="FAiBACSbsbh2R8-8JHN5-1" vertex="1">
          <mxGeometry x="-576" y="596.52" width="80" height="35" as="geometry" />
        </mxCell>
        <mxCell id="v9AVE5IH6e-QtJ-1Ino3-20" value="" style="edgeStyle=orthogonalEdgeStyle;rounded=0;orthogonalLoop=1;jettySize=auto;html=1;exitX=0.5;exitY=1;exitDx=0;exitDy=0;entryX=0.5;entryY=0;entryDx=0;entryDy=0;strokeWidth=3;" parent="FAiBACSbsbh2R8-8JHN5-1" source="v9AVE5IH6e-QtJ-1Ino3-13" target="v9AVE5IH6e-QtJ-1Ino3-17" edge="1">
          <mxGeometry relative="1" as="geometry">
            <mxPoint x="-536" y="561.52" as="sourcePoint" />
            <mxPoint x="-536" y="636.52" as="targetPoint" />
          </mxGeometry>
        </mxCell>
        <mxCell id="v9AVE5IH6e-QtJ-1Ino3-17" value="MzObj" style="ellipse;whiteSpace=wrap;html=1;" parent="FAiBACSbsbh2R8-8JHN5-1" vertex="1">
          <mxGeometry x="-561" y="536.52" width="50" height="30" as="geometry" />
        </mxCell>
        <mxCell id="v9AVE5IH6e-QtJ-1Ino3-21" value="&amp;nbsp;mz_filter_magic" style="rounded=0;whiteSpace=wrap;html=1;fillColor=#d0cee2;strokeColor=#190033;verticalAlign=top;align=left;sketch=1;curveFitting=1;jiggle=2;shadow=0;" parent="FAiBACSbsbh2R8-8JHN5-1" vertex="1">
          <mxGeometry x="-466" y="587.77" width="285" height="118.75" as="geometry" />
        </mxCell>
        <mxCell id="v9AVE5IH6e-QtJ-1Ino3-22" value="&lt;font color=&quot;#330066&quot;&gt;mz_filter_low_intensity&lt;/font&gt;" style="rounded=0;whiteSpace=wrap;html=1;strokeColor=#9673a6;fillColor=#e1d5e7;fontSize=10;" parent="FAiBACSbsbh2R8-8JHN5-1" vertex="1">
          <mxGeometry x="-436" y="667.77" width="110" height="30" as="geometry" />
        </mxCell>
        <mxCell id="v9AVE5IH6e-QtJ-1Ino3-23" value="&lt;font color=&quot;#330066&quot;&gt;mz_filter_blacklist&lt;/font&gt;" style="rounded=0;whiteSpace=wrap;html=1;strokeColor=#9673a6;fillColor=#e1d5e7;fontSize=10;" parent="FAiBACSbsbh2R8-8JHN5-1" vertex="1">
          <mxGeometry x="-436" y="617.77" width="110" height="30" as="geometry" />
        </mxCell>
        <mxCell id="v9AVE5IH6e-QtJ-1Ino3-24" value="&lt;font color=&quot;#330066&quot;&gt;mz_filter_missingness&lt;/font&gt;" style="rounded=0;whiteSpace=wrap;html=1;strokeColor=#9673a6;fillColor=#e1d5e7;fontSize=10;" parent="FAiBACSbsbh2R8-8JHN5-1" vertex="1">
          <mxGeometry x="-311" y="642.77" width="110" height="25" as="geometry" />
        </mxCell>
        <mxCell id="v9AVE5IH6e-QtJ-1Ino3-25" style="rounded=0;orthogonalLoop=1;jettySize=auto;html=1;entryX=0;entryY=0.25;entryDx=0;entryDy=0;startArrow=classic;startFill=1;fillColor=#d0cee2;strokeColor=#56517e;exitX=1;exitY=0.25;exitDx=0;exitDy=0;" parent="FAiBACSbsbh2R8-8JHN5-1" source="v9AVE5IH6e-QtJ-1Ino3-18" target="v9AVE5IH6e-QtJ-1Ino3-23" edge="1">
          <mxGeometry relative="1" as="geometry">
            <mxPoint x="-486" y="554.52" as="sourcePoint" />
            <mxPoint x="-446" y="509.52" as="targetPoint" />
          </mxGeometry>
        </mxCell>
        <mxCell id="v9AVE5IH6e-QtJ-1Ino3-26" style="rounded=0;orthogonalLoop=1;jettySize=auto;html=1;startArrow=classic;startFill=1;fillColor=#d0cee2;strokeColor=#56517e;entryX=0;entryY=0.5;entryDx=0;entryDy=0;" parent="FAiBACSbsbh2R8-8JHN5-1" target="v9AVE5IH6e-QtJ-1Ino3-22" edge="1">
          <mxGeometry relative="1" as="geometry">
            <mxPoint x="-496" y="626.52" as="sourcePoint" />
            <mxPoint x="-436" y="690.52" as="targetPoint" />
          </mxGeometry>
        </mxCell>
        <mxCell id="v9AVE5IH6e-QtJ-1Ino3-27" style="rounded=0;orthogonalLoop=1;jettySize=auto;html=1;entryX=0;entryY=0.5;entryDx=0;entryDy=0;startArrow=classic;startFill=1;fillColor=#d0cee2;strokeColor=#56517e;exitX=1;exitY=0.5;exitDx=0;exitDy=0;" parent="FAiBACSbsbh2R8-8JHN5-1" source="v9AVE5IH6e-QtJ-1Ino3-18" target="v9AVE5IH6e-QtJ-1Ino3-24" edge="1">
          <mxGeometry relative="1" as="geometry">
            <mxPoint x="-466" y="574.52" as="sourcePoint" />
            <mxPoint x="-426" y="529.52" as="targetPoint" />
            <Array as="points">
              <mxPoint x="-436" y="655.52" />
            </Array>
          </mxGeometry>
        </mxCell>
        <mxCell id="v9AVE5IH6e-QtJ-1Ino3-30" value="" style="edgeStyle=orthogonalEdgeStyle;rounded=0;orthogonalLoop=1;jettySize=auto;html=1;exitX=0.5;exitY=1;exitDx=0;exitDy=0;entryX=0.5;entryY=0;entryDx=0;entryDy=0;strokeWidth=3;" parent="FAiBACSbsbh2R8-8JHN5-1" source="v9AVE5IH6e-QtJ-1Ino3-18" target="v9AVE5IH6e-QtJ-1Ino3-29" edge="1">
          <mxGeometry relative="1" as="geometry">
            <mxPoint x="-536" y="671.52" as="sourcePoint" />
            <mxPoint x="-536" y="896.52" as="targetPoint" />
          </mxGeometry>
        </mxCell>
        <mxCell id="v9AVE5IH6e-QtJ-1Ino3-29" value="MzObj" style="ellipse;whiteSpace=wrap;html=1;" parent="FAiBACSbsbh2R8-8JHN5-1" vertex="1">
          <mxGeometry x="-561" y="736.52" width="50" height="30" as="geometry" />
        </mxCell>
        <mxCell id="FAiBACSbsbh2R8-8JHN5-81" value="" style="sketch=0;aspect=fixed;pointerEvents=1;shadow=0;dashed=0;html=1;strokeColor=none;labelPosition=center;verticalLabelPosition=bottom;verticalAlign=top;align=center;fillColor=#00188D;shape=mxgraph.mscae.general.graph" parent="FAiBACSbsbh2R8-8JHN5-1" vertex="1">
          <mxGeometry x="-361" y="486.52" width="30" height="30" as="geometry" />
        </mxCell>
        <mxCell id="v9AVE5IH6e-QtJ-1Ino3-31" value="" style="sketch=0;aspect=fixed;pointerEvents=1;shadow=0;dashed=0;html=1;strokeColor=none;labelPosition=center;verticalLabelPosition=bottom;verticalAlign=top;align=center;fillColor=#00188D;shape=mxgraph.mscae.general.graph" parent="FAiBACSbsbh2R8-8JHN5-1" vertex="1">
          <mxGeometry x="-116" y="371.52" width="30" height="30" as="geometry" />
        </mxCell>
        <mxCell id="sbnSw0-tkLwKyBysIlNG-4" value="mz&lt;div&gt;tagging&lt;/div&gt;" style="rounded=1;whiteSpace=wrap;html=1;fontStyle=1;fillColor=#6600CC;fontColor=#E5CCFF;strokeColor=#190033;" parent="FAiBACSbsbh2R8-8JHN5-1" vertex="1">
          <mxGeometry x="-476" y="534.02" width="80" height="35" as="geometry" />
        </mxCell>
        <mxCell id="sbnSw0-tkLwKyBysIlNG-5" value="" style="edgeStyle=orthogonalEdgeStyle;rounded=0;orthogonalLoop=1;jettySize=auto;html=1;exitX=1;exitY=0.5;exitDx=0;exitDy=0;entryX=0;entryY=0.5;entryDx=0;entryDy=0;strokeWidth=3;" parent="FAiBACSbsbh2R8-8JHN5-1" source="v9AVE5IH6e-QtJ-1Ino3-17" target="sbnSw0-tkLwKyBysIlNG-4" edge="1">
          <mxGeometry relative="1" as="geometry">
            <mxPoint x="-526" y="571.52" as="sourcePoint" />
            <mxPoint x="-526" y="596.52" as="targetPoint" />
          </mxGeometry>
        </mxCell>
        <mxCell id="sbnSw0-tkLwKyBysIlNG-9" style="edgeStyle=orthogonalEdgeStyle;rounded=0;orthogonalLoop=1;jettySize=auto;html=1;exitX=1;exitY=0.5;exitDx=0;exitDy=0;entryX=0;entryY=0.5;entryDx=0;entryDy=0;fillColor=#d0cee2;strokeColor=#56517e;" parent="FAiBACSbsbh2R8-8JHN5-1" source="sbnSw0-tkLwKyBysIlNG-6" target="sbnSw0-tkLwKyBysIlNG-8" edge="1">
          <mxGeometry relative="1" as="geometry" />
        </mxCell>
        <mxCell id="sbnSw0-tkLwKyBysIlNG-6" value="&lt;font color=&quot;#330066&quot;&gt;mz_tag_isotope_hunter&lt;/font&gt;" style="rounded=0;whiteSpace=wrap;html=1;strokeColor=#9673a6;fillColor=#e1d5e7;fontSize=10;" parent="FAiBACSbsbh2R8-8JHN5-1" vertex="1">
          <mxGeometry x="-366" y="539.02" width="135" height="25" as="geometry" />
        </mxCell>
        <mxCell id="sbnSw0-tkLwKyBysIlNG-7" style="rounded=0;orthogonalLoop=1;jettySize=auto;html=1;entryX=0;entryY=0.5;entryDx=0;entryDy=0;startArrow=none;startFill=0;fillColor=#d0cee2;strokeColor=#56517e;exitX=1;exitY=0.5;exitDx=0;exitDy=0;" parent="FAiBACSbsbh2R8-8JHN5-1" source="sbnSw0-tkLwKyBysIlNG-4" target="sbnSw0-tkLwKyBysIlNG-6" edge="1">
          <mxGeometry relative="1" as="geometry">
            <mxPoint x="-486" y="554.52" as="sourcePoint" />
            <mxPoint x="-446" y="504.52" as="targetPoint" />
          </mxGeometry>
        </mxCell>
        <mxCell id="sbnSw0-tkLwKyBysIlNG-8" value="List[[ MzIsotopes ]]" style="ellipse;whiteSpace=wrap;html=1;fontSize=10;" parent="FAiBACSbsbh2R8-8JHN5-1" vertex="1">
          <mxGeometry x="-186" y="536.52" width="102" height="30" as="geometry" />
        </mxCell>
        <mxCell id="FAiBACSbsbh2R8-8JHN5-4" value="&lt;font&gt;mz&lt;/font&gt;&lt;div&gt;&lt;font&gt;subtraction&lt;/font&gt;&lt;/div&gt;" style="rounded=1;whiteSpace=wrap;html=1;fontStyle=1;fillColor=#6600CC;fontColor=#E5CCFF;strokeColor=#190033;" parent="FAiBACSbsbh2R8-8JHN5-1" vertex="1">
          <mxGeometry x="-576" y="421.52" width="80" height="35" as="geometry" />
        </mxCell>
        <mxCell id="sbnSw0-tkLwKyBysIlNG-24" style="edgeStyle=orthogonalEdgeStyle;rounded=0;orthogonalLoop=1;jettySize=auto;html=1;exitX=1;exitY=0.5;exitDx=0;exitDy=0;entryX=0;entryY=0.5;entryDx=0;entryDy=0;fillColor=#d0cee2;strokeColor=#56517e;startArrow=classic;startFill=1;" parent="FAiBACSbsbh2R8-8JHN5-1" source="sbnSw0-tkLwKyBysIlNG-14" target="sbnSw0-tkLwKyBysIlNG-18" edge="1">
          <mxGeometry relative="1" as="geometry" />
        </mxCell>
        <mxCell id="8opacPv0FXcn9tuaC1iO-2" style="edgeStyle=orthogonalEdgeStyle;rounded=0;orthogonalLoop=1;jettySize=auto;html=1;exitX=0;exitY=0.5;exitDx=0;exitDy=0;entryX=0.5;entryY=0;entryDx=0;entryDy=0;strokeWidth=3;" parent="FAiBACSbsbh2R8-8JHN5-1" source="sbnSw0-tkLwKyBysIlNG-14" target="sbnSw0-tkLwKyBysIlNG-25" edge="1">
          <mxGeometry relative="1" as="geometry" />
        </mxCell>
        <mxCell id="sbnSw0-tkLwKyBysIlNG-14" value="mzlong&lt;div&gt;post_log_transform&lt;br&gt;&lt;/div&gt;" style="rounded=1;whiteSpace=wrap;html=1;fontStyle=1;fillColor=#9933FF;strokeColor=#330066;fontColor=#E5CCFF;" parent="FAiBACSbsbh2R8-8JHN5-1" vertex="1">
          <mxGeometry x="-446" y="946.52" width="130" height="40" as="geometry" />
        </mxCell>
        <mxCell id="sbnSw0-tkLwKyBysIlNG-18" value="&lt;font color=&quot;#330066&quot;&gt;mzlong_post_log&lt;/font&gt;" style="rounded=0;whiteSpace=wrap;html=1;strokeColor=#9673a6;fillColor=#e1d5e7;fontSize=10;" parent="FAiBACSbsbh2R8-8JHN5-1" vertex="1">
          <mxGeometry x="-286" y="951.52" width="120" height="30" as="geometry" />
        </mxCell>
        <mxCell id="sbnSw0-tkLwKyBysIlNG-19" value="MzLongObj" style="ellipse;whiteSpace=wrap;html=1;" parent="FAiBACSbsbh2R8-8JHN5-1" vertex="1">
          <mxGeometry x="-431" y="901.5199999999999" width="100" height="30" as="geometry" />
        </mxCell>
        <mxCell id="sbnSw0-tkLwKyBysIlNG-20" style="rounded=0;orthogonalLoop=1;jettySize=auto;html=1;startArrow=classic;startFill=1;exitX=1;exitY=0;exitDx=0;exitDy=0;fillColor=#d0cee2;strokeColor=#56517e;entryX=0;entryY=0.25;entryDx=0;entryDy=0;" parent="FAiBACSbsbh2R8-8JHN5-1" source="FAiBACSbsbh2R8-8JHN5-13" target="FAiBACSbsbh2R8-8JHN5-46" edge="1">
          <mxGeometry relative="1" as="geometry">
            <mxPoint x="-476" y="821.04" as="sourcePoint" />
            <mxPoint x="-295.12" y="821.04" as="targetPoint" />
          </mxGeometry>
        </mxCell>
        <mxCell id="sbnSw0-tkLwKyBysIlNG-22" style="rounded=0;orthogonalLoop=1;jettySize=auto;html=1;startArrow=none;startFill=0;entryX=0.5;entryY=0;entryDx=0;entryDy=0;fillColor=#d0cee2;strokeColor=#56517e;exitX=0.5;exitY=1;exitDx=0;exitDy=0;" parent="FAiBACSbsbh2R8-8JHN5-1" source="FAiBACSbsbh2R8-8JHN5-44" target="sbnSw0-tkLwKyBysIlNG-19" edge="1">
          <mxGeometry relative="1" as="geometry">
            <mxPoint x="-476" y="856.52" as="sourcePoint" />
            <mxPoint x="-431" y="881.52" as="targetPoint" />
            <Array as="points" />
          </mxGeometry>
        </mxCell>
        <mxCell id="sbnSw0-tkLwKyBysIlNG-23" style="rounded=0;orthogonalLoop=1;jettySize=auto;html=1;startArrow=none;startFill=0;entryX=0.5;entryY=0;entryDx=0;entryDy=0;fillColor=#d0cee2;strokeColor=#56517e;exitX=0.5;exitY=1;exitDx=0;exitDy=0;" parent="FAiBACSbsbh2R8-8JHN5-1" source="sbnSw0-tkLwKyBysIlNG-19" target="sbnSw0-tkLwKyBysIlNG-14" edge="1">
          <mxGeometry relative="1" as="geometry">
            <mxPoint x="-311" y="889.52" as="sourcePoint" />
            <mxPoint x="-291" y="901.52" as="targetPoint" />
            <Array as="points" />
          </mxGeometry>
        </mxCell>
        <mxCell id="sbnSw0-tkLwKyBysIlNG-26" value="" style="edgeStyle=orthogonalEdgeStyle;rounded=0;orthogonalLoop=1;jettySize=auto;html=1;exitX=0.5;exitY=1;exitDx=0;exitDy=0;strokeWidth=3;" parent="FAiBACSbsbh2R8-8JHN5-1" source="FAiBACSbsbh2R8-8JHN5-13" target="sbnSw0-tkLwKyBysIlNG-25" edge="1">
          <mxGeometry relative="1" as="geometry">
            <mxPoint x="-536" y="846.52" as="sourcePoint" />
            <mxPoint x="-696" y="1096.52" as="targetPoint" />
            <Array as="points" />
          </mxGeometry>
        </mxCell>
        <mxCell id="sbnSw0-tkLwKyBysIlNG-25" value="List [ MzLogObj, MzLongLogObj ]" style="ellipse;whiteSpace=wrap;html=1;" parent="FAiBACSbsbh2R8-8JHN5-1" vertex="1">
          <mxGeometry x="-641" y="1046.52" width="210" height="40" as="geometry" />
        </mxCell>
        <mxCell id="sbnSw0-tkLwKyBysIlNG-29" value="" style="sketch=0;aspect=fixed;pointerEvents=1;shadow=0;dashed=0;html=1;strokeColor=none;labelPosition=center;verticalLabelPosition=bottom;verticalAlign=top;align=center;fillColor=#00188D;shape=mxgraph.mscae.general.graph" parent="FAiBACSbsbh2R8-8JHN5-1" vertex="1">
          <mxGeometry x="-175.5" y="956.52" width="30" height="30" as="geometry" />
        </mxCell>
        <mxCell id="sbnSw0-tkLwKyBysIlNG-30" value="" style="sketch=0;aspect=fixed;pointerEvents=1;shadow=0;dashed=0;html=1;strokeColor=none;labelPosition=center;verticalLabelPosition=bottom;verticalAlign=top;align=center;fillColor=#00188D;shape=mxgraph.mscae.general.graph" parent="FAiBACSbsbh2R8-8JHN5-1" vertex="1">
          <mxGeometry x="-182.55" y="844.24" width="30" height="30" as="geometry" />
        </mxCell>
        <mxCell id="sbnSw0-tkLwKyBysIlNG-31" value="" style="sketch=0;aspect=fixed;pointerEvents=1;shadow=0;dashed=0;html=1;strokeColor=none;labelPosition=center;verticalLabelPosition=bottom;verticalAlign=top;align=center;fillColor=#00188D;shape=mxgraph.mscae.general.graph" parent="FAiBACSbsbh2R8-8JHN5-1" vertex="1">
          <mxGeometry x="-328" y="818.52" width="30" height="30" as="geometry" />
        </mxCell>
        <mxCell id="GNK7EjtAxi85l2BKIZKV-1" value="" style="edgeStyle=orthogonalEdgeStyle;rounded=0;orthogonalLoop=1;jettySize=auto;html=1;exitX=0.5;exitY=1;exitDx=0;exitDy=0;strokeWidth=3;entryX=0.5;entryY=0;entryDx=0;entryDy=0;" parent="FAiBACSbsbh2R8-8JHN5-1" source="GNK7EjtAxi85l2BKIZKV-8" target="GNK7EjtAxi85l2BKIZKV-3" edge="1">
          <mxGeometry relative="1" as="geometry">
            <mxPoint x="-214" y="1104" as="sourcePoint" />
            <mxPoint x="-76" y="1130" as="targetPoint" />
            <Array as="points">
              <mxPoint x="305" y="80" />
              <mxPoint x="485" y="80" />
            </Array>
          </mxGeometry>
        </mxCell>
        <mxCell id="GNK7EjtAxi85l2BKIZKV-2" value="" style="edgeStyle=orthogonalEdgeStyle;rounded=0;orthogonalLoop=1;jettySize=auto;html=1;exitX=0.5;exitY=1;exitDx=0;exitDy=0;strokeWidth=3;" parent="FAiBACSbsbh2R8-8JHN5-1" source="GNK7EjtAxi85l2BKIZKV-8" target="sbnSw0-tkLwKyBysIlNG-17" edge="1">
          <mxGeometry relative="1" as="geometry">
            <mxPoint x="-224" y="1094" as="sourcePoint" />
            <mxPoint x="-224" y="1170" as="targetPoint" />
            <Array as="points">
              <mxPoint x="130" y="80" />
            </Array>
          </mxGeometry>
        </mxCell>
        <mxCell id="sbnSw0-tkLwKyBysIlNG-17" value="MzLongLogObj" style="ellipse;whiteSpace=wrap;html=1;" parent="FAiBACSbsbh2R8-8JHN5-1" vertex="1">
          <mxGeometry x="80" y="100" width="100" height="30" as="geometry" />
        </mxCell>
        <mxCell id="GNK7EjtAxi85l2BKIZKV-3" value="MzLongLogObj" style="ellipse;whiteSpace=wrap;html=1;" parent="FAiBACSbsbh2R8-8JHN5-1" vertex="1">
          <mxGeometry x="435" y="100" width="100" height="30" as="geometry" />
        </mxCell>
        <mxCell id="GNK7EjtAxi85l2BKIZKV-12" style="edgeStyle=orthogonalEdgeStyle;rounded=0;orthogonalLoop=1;jettySize=auto;html=1;exitX=1;exitY=0.5;exitDx=0;exitDy=0;entryX=0;entryY=0.5;entryDx=0;entryDy=0;" parent="FAiBACSbsbh2R8-8JHN5-1" source="GNK7EjtAxi85l2BKIZKV-5" target="GNK7EjtAxi85l2BKIZKV-13" edge="1">
          <mxGeometry relative="1" as="geometry">
            <mxPoint x="625" y="190.76" as="targetPoint" />
          </mxGeometry>
        </mxCell>
        <mxCell id="GNK7EjtAxi85l2BKIZKV-5" value="mzlong&lt;div&gt;anova&lt;/div&gt;" style="rounded=1;whiteSpace=wrap;html=1;fontStyle=1;fillColor=#CC99FF;strokeColor=#330066;fontColor=#330066;" parent="FAiBACSbsbh2R8-8JHN5-1" vertex="1">
          <mxGeometry x="435" y="170" width="100" height="40" as="geometry" />
        </mxCell>
        <mxCell id="uWoivs7xwVCzCgMOGaIE-41" style="rounded=0;orthogonalLoop=1;jettySize=auto;html=1;exitX=1;exitY=0.25;exitDx=0;exitDy=0;entryX=0;entryY=0.5;entryDx=0;entryDy=0;fillColor=#d0cee2;strokeColor=#56517e;" parent="FAiBACSbsbh2R8-8JHN5-1" source="GNK7EjtAxi85l2BKIZKV-6" target="uWoivs7xwVCzCgMOGaIE-39" edge="1">
          <mxGeometry relative="1" as="geometry" />
        </mxCell>
        <mxCell id="GNK7EjtAxi85l2BKIZKV-6" value="&lt;font color=&quot;#190033&quot;&gt;Identify&lt;/font&gt;" style="rounded=1;whiteSpace=wrap;html=1;fontStyle=1;fillColor=#E5CCFF;strokeColor=#330066;fontColor=#E5CCFF;" parent="FAiBACSbsbh2R8-8JHN5-1" vertex="1">
          <mxGeometry x="80" y="794.2400000000001" width="100" height="40" as="geometry" />
        </mxCell>
        <mxCell id="GNK7EjtAxi85l2BKIZKV-8" value="List [ MzLogObj, MzLongLogObj ]" style="ellipse;whiteSpace=wrap;html=1;" parent="FAiBACSbsbh2R8-8JHN5-1" vertex="1">
          <mxGeometry x="200" y="29.240000000000002" width="210" height="40" as="geometry" />
        </mxCell>
        <mxCell id="GNK7EjtAxi85l2BKIZKV-11" value="" style="edgeStyle=orthogonalEdgeStyle;rounded=0;orthogonalLoop=1;jettySize=auto;html=1;exitX=0.5;exitY=1;exitDx=0;exitDy=0;strokeWidth=3;entryX=0.5;entryY=0;entryDx=0;entryDy=0;" parent="FAiBACSbsbh2R8-8JHN5-1" source="GNK7EjtAxi85l2BKIZKV-3" target="GNK7EjtAxi85l2BKIZKV-5" edge="1">
          <mxGeometry relative="1" as="geometry">
            <mxPoint x="250" y="80.76" as="sourcePoint" />
            <mxPoint x="480" y="124.76" as="targetPoint" />
            <Array as="points">
              <mxPoint x="485" y="160.76" />
              <mxPoint x="485" y="160.76" />
            </Array>
          </mxGeometry>
        </mxCell>
        <mxCell id="GNK7EjtAxi85l2BKIZKV-13" value="&lt;font color=&quot;#330066&quot;&gt;mzlong_analysis_anova&lt;/font&gt;" style="rounded=0;whiteSpace=wrap;html=1;strokeColor=#9673a6;fillColor=#e1d5e7;fontSize=10;" parent="FAiBACSbsbh2R8-8JHN5-1" vertex="1">
          <mxGeometry x="565" y="175" width="130" height="30" as="geometry" />
        </mxCell>
        <mxCell id="FAiBACSbsbh2R8-8JHN5-80" value="" style="sketch=0;aspect=fixed;pointerEvents=1;shadow=0;dashed=0;html=1;strokeColor=none;labelPosition=center;verticalLabelPosition=bottom;verticalAlign=top;align=center;fillColor=#00188D;shape=mxgraph.mscae.general.graph" parent="FAiBACSbsbh2R8-8JHN5-1" vertex="1">
          <mxGeometry x="685" y="185" width="30" height="30" as="geometry" />
        </mxCell>
        <mxCell id="GNK7EjtAxi85l2BKIZKV-17" value="mzlog&lt;div&gt;analysis&lt;/div&gt;" style="rounded=1;whiteSpace=wrap;html=1;fontStyle=1;fillColor=#CC99FF;strokeColor=#330066;fontColor=#330066;" parent="FAiBACSbsbh2R8-8JHN5-1" vertex="1">
          <mxGeometry x="80" y="220.66000000000003" width="100" height="40" as="geometry" />
        </mxCell>
        <mxCell id="GNK7EjtAxi85l2BKIZKV-18" value="" style="edgeStyle=orthogonalEdgeStyle;rounded=0;orthogonalLoop=1;jettySize=auto;html=1;exitX=0.5;exitY=1;exitDx=0;exitDy=0;strokeWidth=3;entryX=0.5;entryY=0;entryDx=0;entryDy=0;" parent="FAiBACSbsbh2R8-8JHN5-1" source="sbnSw0-tkLwKyBysIlNG-17" target="GNK7EjtAxi85l2BKIZKV-17" edge="1">
          <mxGeometry relative="1" as="geometry">
            <mxPoint x="375" y="70" as="sourcePoint" />
            <mxPoint x="140" y="110" as="targetPoint" />
            <Array as="points" />
          </mxGeometry>
        </mxCell>
        <mxCell id="GNK7EjtAxi85l2BKIZKV-19" value="&lt;font color=&quot;#330066&quot;&gt;mzlog_analysis_pca&lt;/font&gt;" style="rounded=0;whiteSpace=wrap;html=1;strokeColor=#9673a6;fillColor=#e1d5e7;fontSize=10;" parent="FAiBACSbsbh2R8-8JHN5-1" vertex="1">
          <mxGeometry x="225" y="145" width="130" height="30" as="geometry" />
        </mxCell>
        <mxCell id="GNK7EjtAxi85l2BKIZKV-20" value="&lt;font color=&quot;#330066&quot;&gt;plot_volcano&lt;/font&gt;" style="rounded=0;whiteSpace=wrap;html=1;strokeColor=#9673a6;fillColor=#e1d5e7;fontSize=10;" parent="FAiBACSbsbh2R8-8JHN5-1" vertex="1">
          <mxGeometry x="380" y="353.62" width="130" height="30" as="geometry" />
        </mxCell>
        <mxCell id="GNK7EjtAxi85l2BKIZKV-21" value="&lt;font color=&quot;#330066&quot;&gt;mzlog_analysis_heatmap&lt;/font&gt;" style="rounded=0;whiteSpace=wrap;html=1;strokeColor=#9673a6;fillColor=#e1d5e7;fontSize=10;" parent="FAiBACSbsbh2R8-8JHN5-1" vertex="1">
          <mxGeometry x="225" y="190.66" width="130" height="30" as="geometry" />
        </mxCell>
        <mxCell id="GNK7EjtAxi85l2BKIZKV-28" style="rounded=0;orthogonalLoop=1;jettySize=auto;html=1;entryX=0;entryY=0.75;entryDx=0;entryDy=0;fillColor=#d0cee2;strokeColor=#56517e;" parent="FAiBACSbsbh2R8-8JHN5-1" source="GNK7EjtAxi85l2BKIZKV-22" target="GNK7EjtAxi85l2BKIZKV-25" edge="1">
          <mxGeometry relative="1" as="geometry" />
        </mxCell>
        <mxCell id="GNK7EjtAxi85l2BKIZKV-22" value="&lt;font color=&quot;#330066&quot;&gt;mzlog_analysis_fold&lt;/font&gt;" style="rounded=0;whiteSpace=wrap;html=1;strokeColor=#9673a6;fillColor=#e1d5e7;fontSize=10;" parent="FAiBACSbsbh2R8-8JHN5-1" vertex="1">
          <mxGeometry x="225" y="320.49" width="130" height="30" as="geometry" />
        </mxCell>
        <mxCell id="GNK7EjtAxi85l2BKIZKV-27" style="rounded=0;orthogonalLoop=1;jettySize=auto;html=1;exitX=1;exitY=0.5;exitDx=0;exitDy=0;entryX=0;entryY=0.25;entryDx=0;entryDy=0;fillColor=#d0cee2;strokeColor=#56517e;" parent="FAiBACSbsbh2R8-8JHN5-1" source="GNK7EjtAxi85l2BKIZKV-24" target="GNK7EjtAxi85l2BKIZKV-25" edge="1">
          <mxGeometry relative="1" as="geometry" />
        </mxCell>
        <mxCell id="GNK7EjtAxi85l2BKIZKV-24" value="&lt;font color=&quot;#330066&quot;&gt;mzlog_analysis_welch&lt;/font&gt;" style="rounded=0;whiteSpace=wrap;html=1;strokeColor=#9673a6;fillColor=#e1d5e7;fontSize=10;" parent="FAiBACSbsbh2R8-8JHN5-1" vertex="1">
          <mxGeometry x="225" y="278.75" width="130" height="30" as="geometry" />
        </mxCell>
        <mxCell id="GNK7EjtAxi85l2BKIZKV-29" style="edgeStyle=orthogonalEdgeStyle;rounded=0;orthogonalLoop=1;jettySize=auto;html=1;entryX=0.5;entryY=0;entryDx=0;entryDy=0;fillColor=#d0cee2;strokeColor=#56517e;" parent="FAiBACSbsbh2R8-8JHN5-1" source="GNK7EjtAxi85l2BKIZKV-25" target="GNK7EjtAxi85l2BKIZKV-20" edge="1">
          <mxGeometry relative="1" as="geometry" />
        </mxCell>
        <mxCell id="GNK7EjtAxi85l2BKIZKV-25" value="plot_volcano" style="rounded=1;whiteSpace=wrap;html=1;fontStyle=1;fillColor=#CC99FF;strokeColor=#330066;fontColor=#330066;" parent="FAiBACSbsbh2R8-8JHN5-1" vertex="1">
          <mxGeometry x="395" y="293.75" width="100" height="35" as="geometry" />
        </mxCell>
        <mxCell id="GNK7EjtAxi85l2BKIZKV-30" style="rounded=0;orthogonalLoop=1;jettySize=auto;html=1;fillColor=#d0cee2;strokeColor=#56517e;entryX=0;entryY=0.5;entryDx=0;entryDy=0;" parent="FAiBACSbsbh2R8-8JHN5-1" target="GNK7EjtAxi85l2BKIZKV-19" edge="1">
          <mxGeometry relative="1" as="geometry">
            <mxPoint x="180" y="230" as="sourcePoint" />
            <mxPoint x="230" y="190" as="targetPoint" />
          </mxGeometry>
        </mxCell>
        <mxCell id="GNK7EjtAxi85l2BKIZKV-31" style="rounded=0;orthogonalLoop=1;jettySize=auto;html=1;exitX=1;exitY=0.25;exitDx=0;exitDy=0;fillColor=#d0cee2;strokeColor=#56517e;entryX=0;entryY=0.5;entryDx=0;entryDy=0;" parent="FAiBACSbsbh2R8-8JHN5-1" source="GNK7EjtAxi85l2BKIZKV-17" target="GNK7EjtAxi85l2BKIZKV-21" edge="1">
          <mxGeometry relative="1" as="geometry">
            <mxPoint x="190" y="184" as="sourcePoint" />
            <mxPoint x="235" y="170" as="targetPoint" />
          </mxGeometry>
        </mxCell>
        <mxCell id="GNK7EjtAxi85l2BKIZKV-32" style="rounded=0;orthogonalLoop=1;jettySize=auto;html=1;exitX=1;exitY=0.75;exitDx=0;exitDy=0;fillColor=#d0cee2;strokeColor=#56517e;entryX=0;entryY=0.25;entryDx=0;entryDy=0;" parent="FAiBACSbsbh2R8-8JHN5-1" source="GNK7EjtAxi85l2BKIZKV-17" target="GNK7EjtAxi85l2BKIZKV-24" edge="1">
          <mxGeometry relative="1" as="geometry">
            <mxPoint x="200" y="194" as="sourcePoint" />
            <mxPoint x="245" y="180" as="targetPoint" />
            <Array as="points" />
          </mxGeometry>
        </mxCell>
        <mxCell id="GNK7EjtAxi85l2BKIZKV-33" style="rounded=0;orthogonalLoop=1;jettySize=auto;html=1;fillColor=#d0cee2;strokeColor=#56517e;entryX=0;entryY=0.25;entryDx=0;entryDy=0;" parent="FAiBACSbsbh2R8-8JHN5-1" target="GNK7EjtAxi85l2BKIZKV-22" edge="1">
          <mxGeometry relative="1" as="geometry">
            <mxPoint x="180" y="250" as="sourcePoint" />
            <mxPoint x="255" y="204.24" as="targetPoint" />
            <Array as="points" />
          </mxGeometry>
        </mxCell>
        <mxCell id="GNK7EjtAxi85l2BKIZKV-34" value="" style="sketch=0;aspect=fixed;pointerEvents=1;shadow=0;dashed=0;html=1;strokeColor=none;labelPosition=center;verticalLabelPosition=bottom;verticalAlign=top;align=center;fillColor=#00188D;shape=mxgraph.mscae.general.graph" parent="FAiBACSbsbh2R8-8JHN5-1" vertex="1">
          <mxGeometry x="490" y="358.48" width="30" height="30" as="geometry" />
        </mxCell>
        <mxCell id="GNK7EjtAxi85l2BKIZKV-35" value="" style="sketch=0;aspect=fixed;pointerEvents=1;shadow=0;dashed=0;html=1;strokeColor=none;labelPosition=center;verticalLabelPosition=bottom;verticalAlign=top;align=center;fillColor=#00188D;shape=mxgraph.mscae.general.graph" parent="FAiBACSbsbh2R8-8JHN5-1" vertex="1">
          <mxGeometry x="347.5" y="154.24" width="30" height="30" as="geometry" />
        </mxCell>
        <mxCell id="GNK7EjtAxi85l2BKIZKV-36" value="" style="sketch=0;aspect=fixed;pointerEvents=1;shadow=0;dashed=0;html=1;strokeColor=none;labelPosition=center;verticalLabelPosition=bottom;verticalAlign=top;align=center;fillColor=#00188D;shape=mxgraph.mscae.general.graph" parent="FAiBACSbsbh2R8-8JHN5-1" vertex="1">
          <mxGeometry x="347.5" y="200" width="30" height="30" as="geometry" />
        </mxCell>
        <mxCell id="GNK7EjtAxi85l2BKIZKV-38" value="mzlog&lt;div&gt;random_forest&lt;/div&gt;" style="rounded=1;whiteSpace=wrap;html=1;fontStyle=1;fillColor=#CC99FF;strokeColor=#330066;fontColor=#330066;" parent="FAiBACSbsbh2R8-8JHN5-1" vertex="1">
          <mxGeometry x="80" y="419.24" width="100" height="40" as="geometry" />
        </mxCell>
        <mxCell id="GNK7EjtAxi85l2BKIZKV-39" value="" style="edgeStyle=orthogonalEdgeStyle;rounded=0;orthogonalLoop=1;jettySize=auto;html=1;exitX=0.5;exitY=1;exitDx=0;exitDy=0;strokeWidth=3;entryX=0.5;entryY=0;entryDx=0;entryDy=0;" parent="FAiBACSbsbh2R8-8JHN5-1" source="sbnSw0-tkLwKyBysIlNG-17" target="GNK7EjtAxi85l2BKIZKV-38" edge="1">
          <mxGeometry relative="1" as="geometry">
            <mxPoint x="140" y="140" as="sourcePoint" />
            <mxPoint x="140" y="184" as="targetPoint" />
            <Array as="points">
              <mxPoint x="130" y="170" />
              <mxPoint x="70" y="170" />
              <mxPoint x="70" y="330" />
              <mxPoint x="130" y="330" />
            </Array>
          </mxGeometry>
        </mxCell>
        <mxCell id="uWoivs7xwVCzCgMOGaIE-1" value="&amp;nbsp; mzlog_rf_magic" style="rounded=0;whiteSpace=wrap;html=1;fillColor=#d0cee2;strokeColor=#190033;verticalAlign=top;align=left;arcSize=9;sketch=1;curveFitting=1;jiggle=2;" parent="FAiBACSbsbh2R8-8JHN5-1" vertex="1">
          <mxGeometry x="200" y="410.49" width="450" height="239.51" as="geometry" />
        </mxCell>
        <mxCell id="uWoivs7xwVCzCgMOGaIE-9" style="edgeStyle=orthogonalEdgeStyle;rounded=0;orthogonalLoop=1;jettySize=auto;html=1;exitX=1;exitY=0.5;exitDx=0;exitDy=0;entryX=0;entryY=0.5;entryDx=0;entryDy=0;fillColor=#d0cee2;strokeColor=#56517e;" parent="FAiBACSbsbh2R8-8JHN5-1" source="uWoivs7xwVCzCgMOGaIE-2" target="uWoivs7xwVCzCgMOGaIE-4" edge="1">
          <mxGeometry relative="1" as="geometry" />
        </mxCell>
        <mxCell id="uWoivs7xwVCzCgMOGaIE-2" value="&lt;font color=&quot;#330066&quot;&gt;mzlog_rf_select&lt;/font&gt;" style="rounded=0;whiteSpace=wrap;html=1;strokeColor=#9673a6;fillColor=#e1d5e7;fontSize=10;" parent="FAiBACSbsbh2R8-8JHN5-1" vertex="1">
          <mxGeometry x="355" y="479.24" width="130" height="30" as="geometry" />
        </mxCell>
        <mxCell id="uWoivs7xwVCzCgMOGaIE-7" style="edgeStyle=orthogonalEdgeStyle;rounded=0;orthogonalLoop=1;jettySize=auto;html=1;exitX=1;exitY=0.5;exitDx=0;exitDy=0;entryX=0;entryY=0.5;entryDx=0;entryDy=0;fillColor=#d0cee2;strokeColor=#56517e;" parent="FAiBACSbsbh2R8-8JHN5-1" source="uWoivs7xwVCzCgMOGaIE-3" target="uWoivs7xwVCzCgMOGaIE-6" edge="1">
          <mxGeometry relative="1" as="geometry" />
        </mxCell>
        <mxCell id="uWoivs7xwVCzCgMOGaIE-3" value="&lt;font color=&quot;#330066&quot;&gt;mzlog_rf_correlation&lt;/font&gt;" style="rounded=0;whiteSpace=wrap;html=1;strokeColor=#9673a6;fillColor=#e1d5e7;fontSize=10;" parent="FAiBACSbsbh2R8-8JHN5-1" vertex="1">
          <mxGeometry x="217.5" y="437.5" width="130" height="30" as="geometry" />
        </mxCell>
        <mxCell id="uWoivs7xwVCzCgMOGaIE-12" style="edgeStyle=orthogonalEdgeStyle;rounded=0;orthogonalLoop=1;jettySize=auto;html=1;exitX=0.5;exitY=1;exitDx=0;exitDy=0;entryX=0.5;entryY=0;entryDx=0;entryDy=0;fillColor=#d0cee2;strokeColor=#56517e;" parent="FAiBACSbsbh2R8-8JHN5-1" source="uWoivs7xwVCzCgMOGaIE-4" target="uWoivs7xwVCzCgMOGaIE-5" edge="1">
          <mxGeometry relative="1" as="geometry" />
        </mxCell>
        <mxCell id="uWoivs7xwVCzCgMOGaIE-4" value="caret::rfe object" style="ellipse;whiteSpace=wrap;html=1;" parent="FAiBACSbsbh2R8-8JHN5-1" vertex="1">
          <mxGeometry x="510" y="479.24" width="100" height="30" as="geometry" />
        </mxCell>
        <mxCell id="uWoivs7xwVCzCgMOGaIE-13" style="edgeStyle=orthogonalEdgeStyle;rounded=0;orthogonalLoop=1;jettySize=auto;html=1;exitX=0.5;exitY=1;exitDx=0;exitDy=0;entryX=0.5;entryY=0;entryDx=0;entryDy=0;strokeWidth=3;" parent="FAiBACSbsbh2R8-8JHN5-1" source="GNK7EjtAxi85l2BKIZKV-38" target="uWoivs7xwVCzCgMOGaIE-15" edge="1">
          <mxGeometry relative="1" as="geometry">
            <mxPoint x="230" y="710" as="targetPoint" />
          </mxGeometry>
        </mxCell>
        <mxCell id="uWoivs7xwVCzCgMOGaIE-5" value="&lt;font color=&quot;#330066&quot;&gt;mzlog_rf&lt;/font&gt;" style="rounded=0;whiteSpace=wrap;html=1;strokeColor=#9673a6;fillColor=#e1d5e7;fontSize=10;" parent="FAiBACSbsbh2R8-8JHN5-1" vertex="1">
          <mxGeometry x="495" y="520" width="130" height="30" as="geometry" />
        </mxCell>
        <mxCell id="uWoivs7xwVCzCgMOGaIE-8" style="edgeStyle=orthogonalEdgeStyle;rounded=0;orthogonalLoop=1;jettySize=auto;html=1;exitX=0.5;exitY=1;exitDx=0;exitDy=0;entryX=0.5;entryY=0;entryDx=0;entryDy=0;fillColor=#d0cee2;strokeColor=#56517e;" parent="FAiBACSbsbh2R8-8JHN5-1" source="uWoivs7xwVCzCgMOGaIE-6" target="uWoivs7xwVCzCgMOGaIE-2" edge="1">
          <mxGeometry relative="1" as="geometry" />
        </mxCell>
        <mxCell id="uWoivs7xwVCzCgMOGaIE-6" value="correlation data" style="ellipse;whiteSpace=wrap;html=1;" parent="FAiBACSbsbh2R8-8JHN5-1" vertex="1">
          <mxGeometry x="375" y="437.5" width="100" height="30" as="geometry" />
        </mxCell>
        <mxCell id="uWoivs7xwVCzCgMOGaIE-32" style="edgeStyle=orthogonalEdgeStyle;rounded=0;orthogonalLoop=1;jettySize=auto;html=1;exitX=0.5;exitY=1;exitDx=0;exitDy=0;entryX=0.5;entryY=0;entryDx=0;entryDy=0;strokeWidth=3;" parent="FAiBACSbsbh2R8-8JHN5-1" source="uWoivs7xwVCzCgMOGaIE-15" target="GNK7EjtAxi85l2BKIZKV-6" edge="1">
          <mxGeometry relative="1" as="geometry" />
        </mxCell>
        <mxCell id="uWoivs7xwVCzCgMOGaIE-15" value="mz" style="ellipse;whiteSpace=wrap;html=1;" parent="FAiBACSbsbh2R8-8JHN5-1" vertex="1">
          <mxGeometry x="101.25" y="670.49" width="57.5" height="30" as="geometry" />
        </mxCell>
        <mxCell id="uWoivs7xwVCzCgMOGaIE-16" style="rounded=0;orthogonalLoop=1;jettySize=auto;html=1;exitX=1;exitY=0.5;exitDx=0;exitDy=0;entryX=0;entryY=0.5;entryDx=0;entryDy=0;fillColor=#d0cee2;strokeColor=#56517e;" parent="FAiBACSbsbh2R8-8JHN5-1" source="GNK7EjtAxi85l2BKIZKV-38" target="uWoivs7xwVCzCgMOGaIE-3" edge="1">
          <mxGeometry relative="1" as="geometry" />
        </mxCell>
        <mxCell id="uWoivs7xwVCzCgMOGaIE-25" style="rounded=0;orthogonalLoop=1;jettySize=auto;html=1;exitX=1;exitY=0.25;exitDx=0;exitDy=0;entryX=0;entryY=0.5;entryDx=0;entryDy=0;fillColor=#d0cee2;strokeColor=#56517e;" parent="FAiBACSbsbh2R8-8JHN5-1" source="uWoivs7xwVCzCgMOGaIE-17" target="uWoivs7xwVCzCgMOGaIE-23" edge="1">
          <mxGeometry relative="1" as="geometry" />
        </mxCell>
        <mxCell id="uWoivs7xwVCzCgMOGaIE-17" value="mzlog&lt;div&gt;rf_validate&lt;/div&gt;" style="rounded=1;whiteSpace=wrap;html=1;fontStyle=1;fillColor=#CC99FF;strokeColor=#330066;fontColor=#330066;" parent="FAiBACSbsbh2R8-8JHN5-1" vertex="1">
          <mxGeometry x="232.5" y="585" width="100" height="40" as="geometry" />
        </mxCell>
        <mxCell id="uWoivs7xwVCzCgMOGaIE-22" value="" style="edgeStyle=orthogonalEdgeStyle;rounded=0;orthogonalLoop=1;jettySize=auto;html=1;exitX=0;exitY=0.5;exitDx=0;exitDy=0;entryX=1;entryY=0.5;entryDx=0;entryDy=0;fillColor=#d0cee2;strokeColor=#56517e;" parent="FAiBACSbsbh2R8-8JHN5-1" source="uWoivs7xwVCzCgMOGaIE-5" target="uWoivs7xwVCzCgMOGaIE-21" edge="1">
          <mxGeometry relative="1" as="geometry">
            <mxPoint x="495" y="535" as="sourcePoint" />
            <mxPoint x="333" y="535" as="targetPoint" />
          </mxGeometry>
        </mxCell>
        <mxCell id="uWoivs7xwVCzCgMOGaIE-24" style="edgeStyle=orthogonalEdgeStyle;rounded=0;orthogonalLoop=1;jettySize=auto;html=1;exitX=0.5;exitY=1;exitDx=0;exitDy=0;entryX=0.5;entryY=0;entryDx=0;entryDy=0;fillColor=#d0cee2;strokeColor=#56517e;" parent="FAiBACSbsbh2R8-8JHN5-1" source="uWoivs7xwVCzCgMOGaIE-21" target="uWoivs7xwVCzCgMOGaIE-17" edge="1">
          <mxGeometry relative="1" as="geometry" />
        </mxCell>
        <mxCell id="uWoivs7xwVCzCgMOGaIE-21" value="rf_obj" style="ellipse;whiteSpace=wrap;html=1;" parent="FAiBACSbsbh2R8-8JHN5-1" vertex="1">
          <mxGeometry x="245.5" y="520" width="74" height="30" as="geometry" />
        </mxCell>
        <mxCell id="uWoivs7xwVCzCgMOGaIE-23" value="&lt;font color=&quot;#330066&quot;&gt;rf_validate&lt;/font&gt;" style="rounded=0;whiteSpace=wrap;html=1;strokeColor=#9673a6;fillColor=#e1d5e7;fontSize=10;" parent="FAiBACSbsbh2R8-8JHN5-1" vertex="1">
          <mxGeometry x="355" y="561.25" width="130" height="30" as="geometry" />
        </mxCell>
        <mxCell id="uWoivs7xwVCzCgMOGaIE-26" value="&lt;font color=&quot;#330066&quot;&gt;rf_permuted&lt;/font&gt;" style="rounded=0;whiteSpace=wrap;html=1;strokeColor=#9673a6;fillColor=#e1d5e7;fontSize=10;" parent="FAiBACSbsbh2R8-8JHN5-1" vertex="1">
          <mxGeometry x="355" y="610.49" width="130" height="30" as="geometry" />
        </mxCell>
        <mxCell id="uWoivs7xwVCzCgMOGaIE-27" style="rounded=0;orthogonalLoop=1;jettySize=auto;html=1;exitX=1;exitY=0.75;exitDx=0;exitDy=0;entryX=0;entryY=0.5;entryDx=0;entryDy=0;fillColor=#d0cee2;strokeColor=#56517e;" parent="FAiBACSbsbh2R8-8JHN5-1" source="uWoivs7xwVCzCgMOGaIE-17" target="uWoivs7xwVCzCgMOGaIE-26" edge="1">
          <mxGeometry relative="1" as="geometry">
            <mxPoint x="343" y="630" as="sourcePoint" />
            <mxPoint x="385" y="599" as="targetPoint" />
          </mxGeometry>
        </mxCell>
        <mxCell id="uWoivs7xwVCzCgMOGaIE-28" value="" style="sketch=0;aspect=fixed;pointerEvents=1;shadow=0;dashed=0;html=1;strokeColor=none;labelPosition=center;verticalLabelPosition=bottom;verticalAlign=top;align=center;fillColor=#00188D;shape=mxgraph.mscae.general.graph" parent="FAiBACSbsbh2R8-8JHN5-1" vertex="1">
          <mxGeometry x="460" y="484.24" width="30" height="30" as="geometry" />
        </mxCell>
        <mxCell id="uWoivs7xwVCzCgMOGaIE-29" value="" style="sketch=0;aspect=fixed;pointerEvents=1;shadow=0;dashed=0;html=1;strokeColor=none;labelPosition=center;verticalLabelPosition=bottom;verticalAlign=top;align=center;fillColor=#00188D;shape=mxgraph.mscae.general.graph" parent="FAiBACSbsbh2R8-8JHN5-1" vertex="1">
          <mxGeometry x="606" y="527" width="30" height="30" as="geometry" />
        </mxCell>
        <mxCell id="uWoivs7xwVCzCgMOGaIE-30" value="" style="sketch=0;aspect=fixed;pointerEvents=1;shadow=0;dashed=0;html=1;strokeColor=none;labelPosition=center;verticalLabelPosition=bottom;verticalAlign=top;align=center;fillColor=#00188D;shape=mxgraph.mscae.general.graph" parent="FAiBACSbsbh2R8-8JHN5-1" vertex="1">
          <mxGeometry x="465" y="615.49" width="30" height="30" as="geometry" />
        </mxCell>
        <mxCell id="uWoivs7xwVCzCgMOGaIE-45" style="rounded=0;orthogonalLoop=1;jettySize=auto;html=1;entryX=0;entryY=0.5;entryDx=0;entryDy=0;fillColor=#d0cee2;strokeColor=#56517e;" parent="FAiBACSbsbh2R8-8JHN5-1" source="uWoivs7xwVCzCgMOGaIE-37" target="uWoivs7xwVCzCgMOGaIE-44" edge="1">
          <mxGeometry relative="1" as="geometry">
            <Array as="points">
              <mxPoint x="490" y="814" />
            </Array>
          </mxGeometry>
        </mxCell>
        <mxCell id="uWoivs7xwVCzCgMOGaIE-37" value="&lt;font color=&quot;#330066&quot;&gt;identify_from_csv&lt;/font&gt;" style="rounded=0;whiteSpace=wrap;html=1;strokeColor=#9673a6;fillColor=#e1d5e7;fontSize=10;" parent="FAiBACSbsbh2R8-8JHN5-1" vertex="1">
          <mxGeometry x="232.5" y="859.24" width="130" height="30" as="geometry" />
        </mxCell>
        <mxCell id="uWoivs7xwVCzCgMOGaIE-40" style="edgeStyle=orthogonalEdgeStyle;rounded=0;orthogonalLoop=1;jettySize=auto;html=1;exitX=0.5;exitY=1;exitDx=0;exitDy=0;entryX=0.5;entryY=0;entryDx=0;entryDy=0;fillColor=#d0cee2;strokeColor=#56517e;" parent="FAiBACSbsbh2R8-8JHN5-1" source="uWoivs7xwVCzCgMOGaIE-38" target="uWoivs7xwVCzCgMOGaIE-37" edge="1">
          <mxGeometry relative="1" as="geometry" />
        </mxCell>
        <mxCell id="uWoivs7xwVCzCgMOGaIE-48" style="rounded=0;orthogonalLoop=1;jettySize=auto;html=1;exitX=1;exitY=0.5;exitDx=0;exitDy=0;entryX=0;entryY=0.5;entryDx=0;entryDy=0;fillColor=#d0cee2;strokeColor=#56517e;" parent="FAiBACSbsbh2R8-8JHN5-1" source="uWoivs7xwVCzCgMOGaIE-38" target="uWoivs7xwVCzCgMOGaIE-44" edge="1">
          <mxGeometry relative="1" as="geometry" />
        </mxCell>
        <mxCell id="uWoivs7xwVCzCgMOGaIE-38" value="&lt;font color=&quot;#330066&quot;&gt;identify_lipids&lt;/font&gt;" style="rounded=0;whiteSpace=wrap;html=1;strokeColor=#9673a6;fillColor=#e1d5e7;fontSize=10;" parent="FAiBACSbsbh2R8-8JHN5-1" vertex="1">
          <mxGeometry x="232.5" y="799.24" width="130" height="30" as="geometry" />
        </mxCell>
        <mxCell id="uWoivs7xwVCzCgMOGaIE-49" style="rounded=0;orthogonalLoop=1;jettySize=auto;html=1;exitX=1;exitY=0.5;exitDx=0;exitDy=0;entryX=0;entryY=0.5;entryDx=0;entryDy=0;fillColor=#d0cee2;strokeColor=#56517e;" parent="FAiBACSbsbh2R8-8JHN5-1" source="uWoivs7xwVCzCgMOGaIE-39" target="uWoivs7xwVCzCgMOGaIE-44" edge="1">
          <mxGeometry relative="1" as="geometry">
            <Array as="points">
              <mxPoint x="490" y="814" />
            </Array>
          </mxGeometry>
        </mxCell>
        <mxCell id="uWoivs7xwVCzCgMOGaIE-39" value="&lt;font color=&quot;#330066&quot;&gt;identify_hmdb&lt;/font&gt;" style="rounded=0;whiteSpace=wrap;html=1;strokeColor=#9673a6;fillColor=#e1d5e7;fontSize=10;" parent="FAiBACSbsbh2R8-8JHN5-1" vertex="1">
          <mxGeometry x="232.5" y="740" width="130" height="30" as="geometry" />
        </mxCell>
        <mxCell id="uWoivs7xwVCzCgMOGaIE-42" style="rounded=0;orthogonalLoop=1;jettySize=auto;html=1;exitX=1;exitY=0.5;exitDx=0;exitDy=0;entryX=0;entryY=0.5;entryDx=0;entryDy=0;fillColor=#d0cee2;strokeColor=#56517e;" parent="FAiBACSbsbh2R8-8JHN5-1" source="GNK7EjtAxi85l2BKIZKV-6" target="uWoivs7xwVCzCgMOGaIE-38" edge="1">
          <mxGeometry relative="1" as="geometry">
            <mxPoint x="190" y="771" as="sourcePoint" />
            <mxPoint x="243" y="781" as="targetPoint" />
          </mxGeometry>
        </mxCell>
        <mxCell id="uWoivs7xwVCzCgMOGaIE-43" style="rounded=0;orthogonalLoop=1;jettySize=auto;html=1;exitX=1;exitY=0.75;exitDx=0;exitDy=0;entryX=0;entryY=0.5;entryDx=0;entryDy=0;fillColor=#d0cee2;strokeColor=#56517e;" parent="FAiBACSbsbh2R8-8JHN5-1" source="GNK7EjtAxi85l2BKIZKV-6" target="uWoivs7xwVCzCgMOGaIE-37" edge="1">
          <mxGeometry relative="1" as="geometry">
            <mxPoint x="200" y="781" as="sourcePoint" />
            <mxPoint x="253" y="791" as="targetPoint" />
          </mxGeometry>
        </mxCell>
        <mxCell id="uWoivs7xwVCzCgMOGaIE-44" value="&lt;div&gt;&lt;/div&gt;&lt;div style=&quot;font-size: 14px;&quot;&gt;&lt;b&gt;List [ Compounds&lt;span style=&quot;background-color: initial;&quot;&gt;&amp;nbsp;]&lt;/span&gt;&lt;/b&gt;&lt;/div&gt;" style="ellipse;whiteSpace=wrap;html=1;" parent="FAiBACSbsbh2R8-8JHN5-1" vertex="1">
          <mxGeometry x="510" y="792.66" width="140" height="43.86" as="geometry" />
        </mxCell>
        <mxCell id="uWoivs7xwVCzCgMOGaIE-50" value="MzObj" style="ellipse;whiteSpace=wrap;html=1;" parent="FAiBACSbsbh2R8-8JHN5-1" vertex="1">
          <mxGeometry x="-561" y="229.99999999999997" width="50" height="30" as="geometry" />
        </mxCell>
        <mxCell id="1IB4CtHzbtAfsRWmF_cg-0" value="files.mzml" style="whiteSpace=wrap;html=1;shape=mxgraph.basic.document;labelPosition=center;verticalLabelPosition=top;align=center;verticalAlign=bottom;" vertex="1" parent="FAiBACSbsbh2R8-8JHN5-1">
          <mxGeometry x="-551" y="29.240000000000002" width="30" height="40" as="geometry" />
        </mxCell>
        <mxCell id="1IB4CtHzbtAfsRWmF_cg-90" value="" style="edgeStyle=orthogonalEdgeStyle;rounded=0;orthogonalLoop=1;jettySize=auto;html=1;exitX=0.5;exitY=1;exitDx=0;exitDy=0;strokeWidth=3;entryX=0.5;entryY=0;entryDx=0;entryDy=0;" edge="1" parent="FAiBACSbsbh2R8-8JHN5-1" source="sbnSw0-tkLwKyBysIlNG-25" target="GNK7EjtAxi85l2BKIZKV-8">
          <mxGeometry relative="1" as="geometry">
            <mxPoint x="-526" y="912" as="sourcePoint" />
            <mxPoint y="740" as="targetPoint" />
            <Array as="points">
              <mxPoint x="-536" y="1100" />
              <mxPoint y="1100" />
              <mxPoint y="9" />
              <mxPoint x="305" y="9" />
            </Array>
          </mxGeometry>
        </mxCell>
      </root>
    </mxGraphModel>
  </diagram>
  <diagram id="Qu2JxFn4Sc55vKDFlBuH" name="extract_magic">
    <mxGraphModel dx="1280" dy="987" grid="1" gridSize="10" guides="1" tooltips="1" connect="1" arrows="1" fold="1" page="1" pageScale="1" pageWidth="827" pageHeight="1169" math="0" shadow="0">
      <root>
        <mxCell id="0" />
        <mxCell id="1" parent="0" />
        <mxCell id="w5cpt7K87R7lpQnFtCT4-1" style="edgeStyle=orthogonalEdgeStyle;rounded=0;orthogonalLoop=1;jettySize=auto;html=1;exitX=1;exitY=0.5;exitDx=0;exitDy=0;entryX=-0.013;entryY=0.178;entryDx=0;entryDy=0;entryPerimeter=0;" edge="1" parent="1" source="w5cpt7K87R7lpQnFtCT4-3" target="w5cpt7K87R7lpQnFtCT4-9">
          <mxGeometry relative="1" as="geometry">
            <mxPoint x="580" y="760" as="targetPoint" />
            <Array as="points">
              <mxPoint x="540" y="745" />
              <mxPoint x="540" y="716" />
            </Array>
          </mxGeometry>
        </mxCell>
        <mxCell id="w5cpt7K87R7lpQnFtCT4-2" value="&lt;b&gt;sumR::mzml_extract_magic&lt;/b&gt;" style="swimlane;fontStyle=0;childLayout=stackLayout;horizontal=1;startSize=30;horizontalStack=0;resizeParent=1;resizeParentMax=0;resizeLast=0;collapsible=1;marginBottom=0;whiteSpace=wrap;html=1;" vertex="1" parent="1">
          <mxGeometry x="300" y="700" width="200" height="120" as="geometry" />
        </mxCell>
        <mxCell id="w5cpt7K87R7lpQnFtCT4-3" value="SampleFileA" style="text;strokeColor=none;fillColor=none;align=left;verticalAlign=middle;spacingLeft=4;spacingRight=4;overflow=hidden;points=[[0,0.5],[1,0.5]];portConstraint=eastwest;rotatable=0;whiteSpace=wrap;html=1;" vertex="1" parent="w5cpt7K87R7lpQnFtCT4-2">
          <mxGeometry y="30" width="200" height="30" as="geometry" />
        </mxCell>
        <mxCell id="w5cpt7K87R7lpQnFtCT4-4" value="SampleFileB" style="text;strokeColor=none;fillColor=none;align=left;verticalAlign=middle;spacingLeft=4;spacingRight=4;overflow=hidden;points=[[0,0.5],[1,0.5]];portConstraint=eastwest;rotatable=0;whiteSpace=wrap;html=1;" vertex="1" parent="w5cpt7K87R7lpQnFtCT4-2">
          <mxGeometry y="60" width="200" height="30" as="geometry" />
        </mxCell>
        <mxCell id="w5cpt7K87R7lpQnFtCT4-5" value="SampleFileN" style="text;strokeColor=none;fillColor=none;align=left;verticalAlign=middle;spacingLeft=4;spacingRight=4;overflow=hidden;points=[[0,0.5],[1,0.5]];portConstraint=eastwest;rotatable=0;whiteSpace=wrap;html=1;" vertex="1" parent="w5cpt7K87R7lpQnFtCT4-2">
          <mxGeometry y="90" width="200" height="30" as="geometry" />
        </mxCell>
        <mxCell id="w5cpt7K87R7lpQnFtCT4-6" style="edgeStyle=orthogonalEdgeStyle;rounded=0;orthogonalLoop=1;jettySize=auto;html=1;entryX=0.01;entryY=0.142;entryDx=0;entryDy=0;entryPerimeter=0;" edge="1" parent="1" source="w5cpt7K87R7lpQnFtCT4-7" target="w5cpt7K87R7lpQnFtCT4-2">
          <mxGeometry relative="1" as="geometry" />
        </mxCell>
        <mxCell id="w5cpt7K87R7lpQnFtCT4-7" value="Data Folder" style="shape=cube;whiteSpace=wrap;html=1;boundedLbl=1;backgroundOutline=1;darkOpacity=0.05;darkOpacity2=0.1;size=10;" vertex="1" parent="1">
          <mxGeometry x="130" y="700" width="120" height="80" as="geometry" />
        </mxCell>
        <mxCell id="w5cpt7K87R7lpQnFtCT4-8" style="edgeStyle=orthogonalEdgeStyle;rounded=0;orthogonalLoop=1;jettySize=auto;html=1;entryX=0.011;entryY=0.133;entryDx=0;entryDy=0;entryPerimeter=0;" edge="1" parent="1" source="w5cpt7K87R7lpQnFtCT4-9" target="w5cpt7K87R7lpQnFtCT4-12">
          <mxGeometry relative="1" as="geometry">
            <mxPoint x="820" y="730" as="targetPoint" />
          </mxGeometry>
        </mxCell>
        <mxCell id="w5cpt7K87R7lpQnFtCT4-9" value="magic.polarity_loop" style="swimlane;fontStyle=0;childLayout=stackLayout;horizontal=1;startSize=30;horizontalStack=0;resizeParent=1;resizeParentMax=0;resizeLast=0;collapsible=1;marginBottom=0;whiteSpace=wrap;html=1;" vertex="1" parent="1">
          <mxGeometry x="590" y="700" width="140" height="90" as="geometry" />
        </mxCell>
        <mxCell id="w5cpt7K87R7lpQnFtCT4-10" value="sampleA - Negative" style="text;strokeColor=none;fillColor=none;align=left;verticalAlign=middle;spacingLeft=4;spacingRight=4;overflow=hidden;points=[[0,0.5],[1,0.5]];portConstraint=eastwest;rotatable=0;whiteSpace=wrap;html=1;" vertex="1" parent="w5cpt7K87R7lpQnFtCT4-9">
          <mxGeometry y="30" width="140" height="30" as="geometry" />
        </mxCell>
        <mxCell id="w5cpt7K87R7lpQnFtCT4-11" value="sampleA - Positive" style="text;strokeColor=none;fillColor=none;align=left;verticalAlign=middle;spacingLeft=4;spacingRight=4;overflow=hidden;points=[[0,0.5],[1,0.5]];portConstraint=eastwest;rotatable=0;whiteSpace=wrap;html=1;" vertex="1" parent="w5cpt7K87R7lpQnFtCT4-9">
          <mxGeometry y="60" width="140" height="30" as="geometry" />
        </mxCell>
        <mxCell id="w5cpt7K87R7lpQnFtCT4-12" value="&lt;b style=&quot;border-color: var(--border-color);&quot;&gt;sumR::mzml_extract_file&lt;/b&gt;" style="swimlane;fontStyle=0;childLayout=stackLayout;horizontal=1;startSize=30;horizontalStack=0;resizeParent=1;resizeParentMax=0;resizeLast=0;collapsible=1;marginBottom=0;whiteSpace=wrap;html=1;" vertex="1" parent="1">
          <mxGeometry x="790" y="700" width="200" height="120" as="geometry" />
        </mxCell>
        <mxCell id="w5cpt7K87R7lpQnFtCT4-13" value="sampleA - Negative -Scan1" style="text;strokeColor=none;fillColor=none;align=left;verticalAlign=middle;spacingLeft=4;spacingRight=4;overflow=hidden;points=[[0,0.5],[1,0.5]];portConstraint=eastwest;rotatable=0;whiteSpace=wrap;html=1;" vertex="1" parent="w5cpt7K87R7lpQnFtCT4-12">
          <mxGeometry y="30" width="200" height="30" as="geometry" />
        </mxCell>
        <mxCell id="w5cpt7K87R7lpQnFtCT4-14" value="sampleA - Negative -Scan2" style="text;strokeColor=none;fillColor=none;align=left;verticalAlign=middle;spacingLeft=4;spacingRight=4;overflow=hidden;points=[[0,0.5],[1,0.5]];portConstraint=eastwest;rotatable=0;whiteSpace=wrap;html=1;" vertex="1" parent="w5cpt7K87R7lpQnFtCT4-12">
          <mxGeometry y="60" width="200" height="30" as="geometry" />
        </mxCell>
        <mxCell id="w5cpt7K87R7lpQnFtCT4-15" value="sampleA - Negative -ScanN" style="text;strokeColor=none;fillColor=none;align=left;verticalAlign=middle;spacingLeft=4;spacingRight=4;overflow=hidden;points=[[0,0.5],[1,0.5]];portConstraint=eastwest;rotatable=0;whiteSpace=wrap;html=1;" vertex="1" parent="w5cpt7K87R7lpQnFtCT4-12">
          <mxGeometry y="90" width="200" height="30" as="geometry" />
        </mxCell>
        <mxCell id="w5cpt7K87R7lpQnFtCT4-16" style="edgeStyle=orthogonalEdgeStyle;rounded=0;orthogonalLoop=1;jettySize=auto;html=1;exitX=0.5;exitY=0;exitDx=0;exitDy=0;entryX=0.55;entryY=0.95;entryDx=0;entryDy=0;entryPerimeter=0;horizontal=1;endArrow=none;endFill=0;strokeWidth=5;" edge="1" parent="1" source="w5cpt7K87R7lpQnFtCT4-17" target="w5cpt7K87R7lpQnFtCT4-44">
          <mxGeometry relative="1" as="geometry">
            <mxPoint x="1170" y="660" as="targetPoint" />
          </mxGeometry>
        </mxCell>
        <mxCell id="w5cpt7K87R7lpQnFtCT4-17" value="z_centroid::centroiding.singleScan" style="swimlane;fontStyle=0;childLayout=stackLayout;horizontal=1;startSize=30;horizontalStack=0;resizeParent=1;resizeParentMax=0;resizeLast=0;collapsible=1;marginBottom=0;whiteSpace=wrap;html=1;" vertex="1" parent="1">
          <mxGeometry x="1080" y="700" width="280" height="120" as="geometry" />
        </mxCell>
        <mxCell id="w5cpt7K87R7lpQnFtCT4-18" value="sampleA - Negative -Scan1 - savGol[ mz1 , Int ]" style="text;strokeColor=none;fillColor=none;align=left;verticalAlign=middle;spacingLeft=4;spacingRight=4;overflow=hidden;points=[[0,0.5],[1,0.5]];portConstraint=eastwest;rotatable=0;whiteSpace=wrap;html=1;" vertex="1" parent="w5cpt7K87R7lpQnFtCT4-17">
          <mxGeometry y="30" width="280" height="30" as="geometry" />
        </mxCell>
        <mxCell id="w5cpt7K87R7lpQnFtCT4-19" value="sampleA - Negative -Scan1 - savGol[ mz2 , Int ]" style="text;strokeColor=none;fillColor=none;align=left;verticalAlign=middle;spacingLeft=4;spacingRight=4;overflow=hidden;points=[[0,0.5],[1,0.5]];portConstraint=eastwest;rotatable=0;whiteSpace=wrap;html=1;" vertex="1" parent="w5cpt7K87R7lpQnFtCT4-17">
          <mxGeometry y="60" width="280" height="30" as="geometry" />
        </mxCell>
        <mxCell id="w5cpt7K87R7lpQnFtCT4-20" value="sampleA - Negative -Scan1 - savGol[ mzN, Int ]" style="text;strokeColor=none;fillColor=none;align=left;verticalAlign=middle;spacingLeft=4;spacingRight=4;overflow=hidden;points=[[0,0.5],[1,0.5]];portConstraint=eastwest;rotatable=0;whiteSpace=wrap;html=1;" vertex="1" parent="w5cpt7K87R7lpQnFtCT4-17">
          <mxGeometry y="90" width="280" height="30" as="geometry" />
        </mxCell>
        <mxCell id="w5cpt7K87R7lpQnFtCT4-21" style="edgeStyle=orthogonalEdgeStyle;rounded=0;orthogonalLoop=1;jettySize=auto;html=1;exitX=1;exitY=0.5;exitDx=0;exitDy=0;entryX=-0.009;entryY=0.139;entryDx=0;entryDy=0;entryPerimeter=0;" edge="1" parent="1" source="w5cpt7K87R7lpQnFtCT4-13" target="w5cpt7K87R7lpQnFtCT4-17">
          <mxGeometry relative="1" as="geometry">
            <mxPoint x="1070" y="720" as="targetPoint" />
          </mxGeometry>
        </mxCell>
        <mxCell id="w5cpt7K87R7lpQnFtCT4-22" value="" style="edgeStyle=orthogonalEdgeStyle;rounded=0;orthogonalLoop=1;jettySize=auto;entryX=1;entryY=0.25;entryDx=0;entryDy=0;exitX=0.999;exitY=0.122;exitDx=0;exitDy=0;exitPerimeter=0;html=1;" edge="1" parent="1" source="w5cpt7K87R7lpQnFtCT4-17" target="w5cpt7K87R7lpQnFtCT4-24">
          <mxGeometry x="-0.298" y="70" relative="1" as="geometry">
            <mxPoint x="990" y="855" as="targetPoint" />
            <Array as="points">
              <mxPoint x="1430" y="715" />
              <mxPoint x="1430" y="945" />
            </Array>
            <mxPoint as="offset" />
          </mxGeometry>
        </mxCell>
        <mxCell id="w5cpt7K87R7lpQnFtCT4-23" value="List[ [ mzT , Scan1 ] , &lt;br&gt;&amp;nbsp; &amp;nbsp; [ mzT, scan2 ],&lt;br&gt;&amp;nbsp; &amp;nbsp; &amp;nbsp; [mzT , scanN ] ]" style="edgeLabel;html=1;align=center;verticalAlign=middle;resizable=0;points=[];" vertex="1" connectable="0" parent="w5cpt7K87R7lpQnFtCT4-22">
          <mxGeometry x="0.0761" y="-1" relative="1" as="geometry">
            <mxPoint x="11" y="-8" as="offset" />
          </mxGeometry>
        </mxCell>
        <mxCell id="w5cpt7K87R7lpQnFtCT4-24" value="magic.mz_format" style="swimlane;fontStyle=0;childLayout=stackLayout;horizontal=1;startSize=30;horizontalStack=0;resizeParent=1;resizeParentMax=0;resizeLast=0;collapsible=1;marginBottom=0;whiteSpace=wrap;html=1;" vertex="1" parent="1">
          <mxGeometry x="1080" y="930" width="280" height="60" as="geometry" />
        </mxCell>
        <mxCell id="w5cpt7K87R7lpQnFtCT4-25" style="edgeStyle=orthogonalEdgeStyle;rounded=0;orthogonalLoop=1;jettySize=auto;html=1;exitX=0;exitY=0.5;exitDx=0;exitDy=0;" edge="1" parent="w5cpt7K87R7lpQnFtCT4-24" source="w5cpt7K87R7lpQnFtCT4-26">
          <mxGeometry relative="1" as="geometry">
            <mxPoint x="-90" y="45" as="targetPoint" />
          </mxGeometry>
        </mxCell>
        <mxCell id="w5cpt7K87R7lpQnFtCT4-26" value="sampleA - Negative&amp;nbsp; - MzT" style="text;strokeColor=none;fillColor=none;align=left;verticalAlign=middle;spacingLeft=4;spacingRight=4;overflow=hidden;points=[[0,0.5],[1,0.5]];portConstraint=eastwest;rotatable=0;whiteSpace=wrap;html=1;" vertex="1" parent="w5cpt7K87R7lpQnFtCT4-24">
          <mxGeometry y="30" width="280" height="30" as="geometry" />
        </mxCell>
        <mxCell id="w5cpt7K87R7lpQnFtCT4-27" style="edgeStyle=orthogonalEdgeStyle;rounded=0;orthogonalLoop=1;jettySize=auto;html=1;" edge="1" parent="1">
          <mxGeometry relative="1" as="geometry">
            <mxPoint x="794" y="940" as="sourcePoint" />
            <mxPoint x="744" y="940" as="targetPoint" />
          </mxGeometry>
        </mxCell>
        <mxCell id="w5cpt7K87R7lpQnFtCT4-28" value="&lt;b style=&quot;border-color: var(--border-color);&quot;&gt;sumR::mzT_filtering&lt;/b&gt;" style="swimlane;fontStyle=0;childLayout=stackLayout;horizontal=1;startSize=30;horizontalStack=0;resizeParent=1;resizeParentMax=0;resizeLast=0;collapsible=1;marginBottom=0;whiteSpace=wrap;html=1;" vertex="1" parent="1">
          <mxGeometry x="790" y="930" width="200" height="120" as="geometry" />
        </mxCell>
        <mxCell id="w5cpt7K87R7lpQnFtCT4-29" value="&lt;span style=&quot;font-weight: normal;&quot;&gt;sampleA - Negative - MzT - filtered&lt;/span&gt;" style="text;strokeColor=none;fillColor=none;align=left;verticalAlign=middle;spacingLeft=4;spacingRight=4;overflow=hidden;points=[[0,0.5],[1,0.5]];portConstraint=eastwest;rotatable=0;whiteSpace=wrap;html=1;fontStyle=1" vertex="1" parent="w5cpt7K87R7lpQnFtCT4-28">
          <mxGeometry y="30" width="200" height="30" as="geometry" />
        </mxCell>
        <mxCell id="w5cpt7K87R7lpQnFtCT4-30" style="edgeStyle=orthogonalEdgeStyle;rounded=0;orthogonalLoop=1;jettySize=auto;html=1;exitX=0;exitY=0.5;exitDx=0;exitDy=0;entryX=1;entryY=0.5;entryDx=0;entryDy=0;" edge="1" parent="w5cpt7K87R7lpQnFtCT4-28" source="w5cpt7K87R7lpQnFtCT4-29" target="w5cpt7K87R7lpQnFtCT4-29">
          <mxGeometry relative="1" as="geometry">
            <Array as="points">
              <mxPoint x="-20" y="45" />
              <mxPoint x="-20" y="140" />
              <mxPoint x="220" y="140" />
              <mxPoint x="220" y="45" />
            </Array>
          </mxGeometry>
        </mxCell>
        <mxCell id="w5cpt7K87R7lpQnFtCT4-31" value="Binning ( timeBin Method )" style="edgeLabel;html=1;align=center;verticalAlign=middle;resizable=0;points=[];" vertex="1" connectable="0" parent="w5cpt7K87R7lpQnFtCT4-30">
          <mxGeometry x="-0.0258" y="1" relative="1" as="geometry">
            <mxPoint as="offset" />
          </mxGeometry>
        </mxCell>
        <mxCell id="w5cpt7K87R7lpQnFtCT4-32" style="edgeStyle=orthogonalEdgeStyle;rounded=0;orthogonalLoop=1;jettySize=auto;html=1;exitX=0;exitY=0.5;exitDx=0;exitDy=0;entryX=1;entryY=0.5;entryDx=0;entryDy=0;" edge="1" parent="w5cpt7K87R7lpQnFtCT4-28" source="w5cpt7K87R7lpQnFtCT4-29" target="w5cpt7K87R7lpQnFtCT4-29">
          <mxGeometry relative="1" as="geometry">
            <Array as="points">
              <mxPoint x="-20" y="45" />
              <mxPoint x="-20" y="170" />
              <mxPoint x="220" y="170" />
              <mxPoint x="220" y="45" />
            </Array>
          </mxGeometry>
        </mxCell>
        <mxCell id="w5cpt7K87R7lpQnFtCT4-33" value="lowIntensity" style="edgeLabel;html=1;align=center;verticalAlign=middle;resizable=0;points=[];" vertex="1" connectable="0" parent="w5cpt7K87R7lpQnFtCT4-32">
          <mxGeometry x="-0.0362" y="-4" relative="1" as="geometry">
            <mxPoint x="7" y="-4" as="offset" />
          </mxGeometry>
        </mxCell>
        <mxCell id="w5cpt7K87R7lpQnFtCT4-34" value="missingness" style="edgeStyle=orthogonalEdgeStyle;rounded=0;orthogonalLoop=1;jettySize=auto;html=1;exitX=0;exitY=0.5;exitDx=0;exitDy=0;entryX=1;entryY=0.5;entryDx=0;entryDy=0;" edge="1" parent="w5cpt7K87R7lpQnFtCT4-28" source="w5cpt7K87R7lpQnFtCT4-29" target="w5cpt7K87R7lpQnFtCT4-29">
          <mxGeometry x="-0.0392" relative="1" as="geometry">
            <Array as="points">
              <mxPoint x="-20" y="45" />
              <mxPoint x="-20" y="200" />
              <mxPoint x="220" y="200" />
              <mxPoint x="220" y="45" />
            </Array>
            <mxPoint as="offset" />
          </mxGeometry>
        </mxCell>
        <mxCell id="w5cpt7K87R7lpQnFtCT4-35" value="sampleB - Negative - MzT - filtered" style="text;strokeColor=none;fillColor=none;align=left;verticalAlign=middle;spacingLeft=4;spacingRight=4;overflow=hidden;points=[[0,0.5],[1,0.5]];portConstraint=eastwest;rotatable=0;whiteSpace=wrap;html=1;" vertex="1" parent="w5cpt7K87R7lpQnFtCT4-28">
          <mxGeometry y="60" width="200" height="30" as="geometry" />
        </mxCell>
        <mxCell id="w5cpt7K87R7lpQnFtCT4-36" value="sampleN - Negative - MzT - filtered" style="text;strokeColor=none;fillColor=none;align=left;verticalAlign=middle;spacingLeft=4;spacingRight=4;overflow=hidden;points=[[0,0.5],[1,0.5]];portConstraint=eastwest;rotatable=0;whiteSpace=wrap;html=1;" vertex="1" parent="w5cpt7K87R7lpQnFtCT4-28">
          <mxGeometry y="90" width="200" height="30" as="geometry" />
        </mxCell>
        <mxCell id="w5cpt7K87R7lpQnFtCT4-37" style="edgeStyle=orthogonalEdgeStyle;rounded=0;orthogonalLoop=1;jettySize=auto;html=1;entryX=1;entryY=0.25;entryDx=0;entryDy=0;exitX=0.007;exitY=0.186;exitDx=0;exitDy=0;exitPerimeter=0;" edge="1" parent="1" source="w5cpt7K87R7lpQnFtCT4-38" target="w5cpt7K87R7lpQnFtCT4-42">
          <mxGeometry relative="1" as="geometry">
            <mxPoint x="-110" y="945" as="targetPoint" />
            <mxPoint x="230" y="1070" as="sourcePoint" />
            <Array as="points">
              <mxPoint x="280" y="947" />
            </Array>
          </mxGeometry>
        </mxCell>
        <mxCell id="w5cpt7K87R7lpQnFtCT4-38" value="magic.mz_format" style="swimlane;fontStyle=0;childLayout=stackLayout;horizontal=1;startSize=30;horizontalStack=0;resizeParent=1;resizeParentMax=0;resizeLast=0;collapsible=1;marginBottom=0;whiteSpace=wrap;html=1;" vertex="1" parent="1">
          <mxGeometry x="300" y="930" width="164" height="90" as="geometry" />
        </mxCell>
        <mxCell id="w5cpt7K87R7lpQnFtCT4-39" value="Binning (mzBin Method)" style="edgeStyle=orthogonalEdgeStyle;rounded=0;orthogonalLoop=1;jettySize=auto;html=1;exitX=0;exitY=0.5;exitDx=0;exitDy=0;entryX=1;entryY=0.5;entryDx=0;entryDy=0;" edge="1" parent="w5cpt7K87R7lpQnFtCT4-38" source="w5cpt7K87R7lpQnFtCT4-40" target="w5cpt7K87R7lpQnFtCT4-40">
          <mxGeometry relative="1" as="geometry">
            <mxPoint x="-90" y="45" as="targetPoint" />
            <Array as="points">
              <mxPoint x="-20" y="45" />
              <mxPoint x="-20" y="110" />
              <mxPoint x="190" y="110" />
              <mxPoint x="190" y="45" />
            </Array>
            <mxPoint as="offset" />
          </mxGeometry>
        </mxCell>
        <mxCell id="w5cpt7K87R7lpQnFtCT4-40" value="Negative&amp;nbsp; - MzObj" style="text;strokeColor=none;fillColor=none;align=left;verticalAlign=middle;spacingLeft=4;spacingRight=4;overflow=hidden;points=[[0,0.5],[1,0.5]];portConstraint=eastwest;rotatable=0;whiteSpace=wrap;html=1;" vertex="1" parent="w5cpt7K87R7lpQnFtCT4-38">
          <mxGeometry y="30" width="164" height="30" as="geometry" />
        </mxCell>
        <mxCell id="w5cpt7K87R7lpQnFtCT4-41" value="Postive - MzObj" style="text;strokeColor=none;fillColor=none;align=left;verticalAlign=middle;spacingLeft=4;spacingRight=4;overflow=hidden;points=[[0,0.5],[1,0.5]];portConstraint=eastwest;rotatable=0;whiteSpace=wrap;html=1;" vertex="1" parent="w5cpt7K87R7lpQnFtCT4-38">
          <mxGeometry y="60" width="164" height="30" as="geometry" />
        </mxCell>
        <mxCell id="w5cpt7K87R7lpQnFtCT4-42" value="@Return" style="swimlane;fontStyle=0;childLayout=stackLayout;horizontal=1;startSize=30;horizontalStack=0;resizeParent=1;resizeParentMax=0;resizeLast=0;collapsible=1;marginBottom=0;whiteSpace=wrap;html=1;" vertex="1" parent="1">
          <mxGeometry x="120" y="930" width="140" height="70" as="geometry" />
        </mxCell>
        <mxCell id="w5cpt7K87R7lpQnFtCT4-43" value="List [&amp;nbsp; mzObj(pos) ,&amp;nbsp; &lt;span style=&quot;white-space: pre;&quot;&gt;&#x9;&lt;/span&gt;&amp;nbsp; mzObj(neg) ]" style="text;strokeColor=none;fillColor=none;align=left;verticalAlign=middle;spacingLeft=4;spacingRight=4;overflow=hidden;points=[[0,0.5],[1,0.5]];portConstraint=eastwest;rotatable=0;whiteSpace=wrap;html=1;" vertex="1" parent="w5cpt7K87R7lpQnFtCT4-42">
          <mxGeometry y="30" width="140" height="40" as="geometry" />
        </mxCell>
        <mxCell id="w5cpt7K87R7lpQnFtCT4-44" value="&lt;b style=&quot;border-color: var(--border-color); color: rgb(0, 0, 0); font-family: Helvetica; font-size: 12px; font-style: normal; font-variant-ligatures: normal; font-variant-caps: normal; letter-spacing: normal; orphans: 2; text-align: left; text-indent: 0px; text-transform: none; widows: 2; word-spacing: 0px; -webkit-text-stroke-width: 0px; background-color: rgb(251, 251, 251); text-decoration-thickness: initial; text-decoration-style: initial; text-decoration-color: initial;&quot;&gt;Maldi SavGol Centroiding:&lt;br style=&quot;border-color: var(--border-color);&quot;&gt;&lt;/b&gt;&lt;span style=&quot;color: rgb(0, 0, 0); font-family: Helvetica; font-size: 12px; font-style: normal; font-variant-ligatures: normal; font-variant-caps: normal; font-weight: 400; letter-spacing: normal; orphans: 2; text-align: left; text-indent: 0px; text-transform: none; widows: 2; word-spacing: 0px; -webkit-text-stroke-width: 0px; background-color: rgb(251, 251, 251); text-decoration-thickness: initial; text-decoration-style: initial; text-decoration-color: initial; float: none; display: inline !important;&quot;&gt;Hunts for local maxima starting in the center of MZs, &lt;br&gt;spreading outward, for a single scan, &lt;br&gt;of a singe polarity, of a single sample.&lt;/span&gt;" style="ellipse;shape=cloud;whiteSpace=wrap;html=1;strokeColor=#0066CC;strokeWidth=4;" vertex="1" parent="1">
          <mxGeometry x="980" y="560" width="430" height="120" as="geometry" />
        </mxCell>
        <mxCell id="w5cpt7K87R7lpQnFtCT4-45" value="&lt;b&gt;sumR::mzT_timeSquash&lt;/b&gt;" style="swimlane;fontStyle=0;childLayout=stackLayout;horizontal=1;startSize=30;horizontalStack=0;resizeParent=1;resizeParentMax=0;resizeLast=0;collapsible=1;marginBottom=0;whiteSpace=wrap;html=1;" vertex="1" parent="1">
          <mxGeometry x="520" y="930" width="224" height="120" as="geometry" />
        </mxCell>
        <mxCell id="w5cpt7K87R7lpQnFtCT4-46" value="Sample A - Negative&amp;nbsp; - MzObj" style="text;strokeColor=none;fillColor=none;align=left;verticalAlign=middle;spacingLeft=4;spacingRight=4;overflow=hidden;points=[[0,0.5],[1,0.5]];portConstraint=eastwest;rotatable=0;whiteSpace=wrap;html=1;" vertex="1" parent="w5cpt7K87R7lpQnFtCT4-45">
          <mxGeometry y="30" width="224" height="30" as="geometry" />
        </mxCell>
        <mxCell id="w5cpt7K87R7lpQnFtCT4-47" value="Sample B - Negative - MzObj" style="text;strokeColor=none;fillColor=none;align=left;verticalAlign=middle;spacingLeft=4;spacingRight=4;overflow=hidden;points=[[0,0.5],[1,0.5]];portConstraint=eastwest;rotatable=0;whiteSpace=wrap;html=1;" vertex="1" parent="w5cpt7K87R7lpQnFtCT4-45">
          <mxGeometry y="60" width="224" height="30" as="geometry" />
        </mxCell>
        <mxCell id="w5cpt7K87R7lpQnFtCT4-48" value="Sample N - Negative - MzObj" style="text;strokeColor=none;fillColor=none;align=left;verticalAlign=middle;spacingLeft=4;spacingRight=4;overflow=hidden;points=[[0,0.5],[1,0.5]];portConstraint=eastwest;rotatable=0;whiteSpace=wrap;html=1;" vertex="1" parent="w5cpt7K87R7lpQnFtCT4-45">
          <mxGeometry y="90" width="224" height="30" as="geometry" />
        </mxCell>
        <mxCell id="w5cpt7K87R7lpQnFtCT4-49" style="edgeStyle=orthogonalEdgeStyle;rounded=0;orthogonalLoop=1;jettySize=auto;html=1;entryX=0.997;entryY=0.14;entryDx=0;entryDy=0;entryPerimeter=0;" edge="1" parent="1" source="w5cpt7K87R7lpQnFtCT4-45" target="w5cpt7K87R7lpQnFtCT4-38">
          <mxGeometry relative="1" as="geometry">
            <Array as="points">
              <mxPoint x="470" y="943" />
              <mxPoint x="470" y="943" />
            </Array>
          </mxGeometry>
        </mxCell>
        <mxCell id="N5y2j9LVICfh_ujUqIcT-1" value="&quot;Extracting&quot;" style="endArrow=classic;html=1;rounded=0;strokeWidth=4;fontSize=15;fontStyle=1" edge="1" parent="1">
          <mxGeometry width="50" height="50" relative="1" as="geometry">
            <mxPoint x="280" y="850" as="sourcePoint" />
            <mxPoint x="1200" y="850" as="targetPoint" />
          </mxGeometry>
        </mxCell>
        <mxCell id="N5y2j9LVICfh_ujUqIcT-2" value="&quot;Squashing&quot;" style="endArrow=classic;html=1;rounded=0;strokeWidth=4;fontSize=15;fontStyle=1" edge="1" parent="1">
          <mxGeometry width="50" height="50" relative="1" as="geometry">
            <mxPoint x="1200" y="900" as="sourcePoint" />
            <mxPoint x="280" y="900" as="targetPoint" />
          </mxGeometry>
        </mxCell>
      </root>
    </mxGraphModel>
  </diagram>
  <diagram id="E6cXIcmxNEcgMDypnntv" name="extract_recursion">
    <mxGraphModel dx="896" dy="691" grid="1" gridSize="10" guides="1" tooltips="1" connect="1" arrows="1" fold="1" page="1" pageScale="1" pageWidth="827" pageHeight="1169" math="0" shadow="0">
      <root>
        <mxCell id="0" />
        <mxCell id="1" parent="0" />
        <mxCell id="y8NNZibKpEqC5LmSM_2C-1" value="&lt;b&gt;mzml_extract_magic(files, cores, &lt;font color=&quot;#0066cc&quot;&gt;params&lt;/font&gt;)&lt;br&gt;&lt;/b&gt;" style="rounded=0;whiteSpace=wrap;html=1;align=left;verticalAlign=top;movable=1;resizable=1;rotatable=1;deletable=1;editable=1;locked=0;connectable=1;" vertex="1" parent="1">
          <mxGeometry x="100" y="570" width="820" height="650" as="geometry" />
        </mxCell>
        <mxCell id="y8NNZibKpEqC5LmSM_2C-2" value="&lt;b&gt;magic.polarity_final( files, polarity, cores, &lt;font color=&quot;#0066cc&quot;&gt;params&lt;/font&gt;)&lt;br&gt;&lt;/b&gt;" style="rounded=0;whiteSpace=wrap;html=1;align=left;verticalAlign=top;movable=1;resizable=1;rotatable=1;deletable=1;editable=1;locked=0;connectable=1;" vertex="1" parent="1">
          <mxGeometry x="200" y="1100" width="700" height="90" as="geometry" />
        </mxCell>
        <mxCell id="y8NNZibKpEqC5LmSM_2C-3" value="&lt;b&gt;magic.polarity_loop( files, polarity, cores, &lt;font color=&quot;#0066cc&quot;&gt;params&lt;/font&gt;)&lt;br&gt;&lt;/b&gt;" style="rounded=0;whiteSpace=wrap;html=1;align=left;verticalAlign=top;movable=1;resizable=1;rotatable=1;deletable=1;editable=1;locked=0;connectable=1;" vertex="1" parent="1">
          <mxGeometry x="200" y="680" width="700" height="420" as="geometry" />
        </mxCell>
        <mxCell id="y8NNZibKpEqC5LmSM_2C-4" value="&lt;b&gt;mzml_extract_file ( file, peak_meta, polarity, magic, log_name,&amp;nbsp;&lt;/b&gt;&lt;div&gt;&lt;b&gt;&lt;font color=&quot;#0066cc&quot;&gt;&lt;span style=&quot;white-space: pre;&quot;&gt;&#x9;&lt;/span&gt;&lt;span style=&quot;white-space: pre;&quot;&gt;&#x9;&lt;/span&gt;&lt;span style=&quot;white-space: pre;&quot;&gt;&#x9;&lt;/span&gt;&lt;span style=&quot;white-space: pre;&quot;&gt;&#x9;&lt;/span&gt;&amp;nbsp; missingness_threshod, intensity_threshold, time_squash_method, log_name&lt;/font&gt;)&lt;br&gt;&lt;br&gt;&lt;/b&gt;&lt;/div&gt;" style="rounded=0;whiteSpace=wrap;html=1;align=left;verticalAlign=top;movable=1;resizable=1;rotatable=1;deletable=1;editable=1;locked=0;connectable=1;" vertex="1" parent="1">
          <mxGeometry x="300" y="720" width="580" height="370" as="geometry" />
        </mxCell>
        <mxCell id="y8NNZibKpEqC5LmSM_2C-5" value="&lt;b&gt;centroid.singleScan ( data )&lt;br&gt;&lt;/b&gt;" style="rounded=0;whiteSpace=wrap;html=1;align=left;verticalAlign=top;movable=1;resizable=1;rotatable=1;deletable=1;editable=1;locked=0;connectable=1;" vertex="1" parent="1">
          <mxGeometry x="321" y="777" width="539" height="30" as="geometry" />
        </mxCell>
        <mxCell id="y8NNZibKpEqC5LmSM_2C-6" value="&lt;b&gt;.mzformat( list(data) )&lt;br&gt;&lt;/b&gt;" style="rounded=0;whiteSpace=wrap;html=1;align=left;verticalAlign=top;movable=1;resizable=1;rotatable=1;deletable=1;editable=1;locked=0;connectable=1;" vertex="1" parent="1">
          <mxGeometry x="321" y="807" width="539" height="30" as="geometry" />
        </mxCell>
        <mxCell id="y8NNZibKpEqC5LmSM_2C-7" value="&lt;b&gt;if(magic)&lt;br&gt;&lt;/b&gt;" style="rounded=0;whiteSpace=wrap;html=1;align=left;verticalAlign=top;movable=1;resizable=1;rotatable=1;deletable=1;editable=1;locked=0;connectable=1;" vertex="1" parent="1">
          <mxGeometry x="321" y="837" width="539" height="233" as="geometry" />
        </mxCell>
        <mxCell id="y8NNZibKpEqC5LmSM_2C-8" value="&lt;b&gt;mzT_squashTime(data, &lt;font color=&quot;#0066cc&quot;&gt;time_squash_method&lt;/font&gt;)&lt;br&gt;&lt;/b&gt;" style="rounded=0;whiteSpace=wrap;html=1;align=left;verticalAlign=top;movable=1;resizable=1;rotatable=1;deletable=1;editable=1;locked=0;connectable=1;" vertex="1" parent="1">
          <mxGeometry x="336" y="1020" width="510" height="33" as="geometry" />
        </mxCell>
        <mxCell id="y8NNZibKpEqC5LmSM_2C-9" value="&lt;b&gt;mzT_filter(mzT, &lt;font color=&quot;#0066cc&quot;&gt;prebin_method, missingness_threshold, intensity_threshold&lt;/font&gt;, log_name&lt;br&gt;&lt;/b&gt;" style="rounded=0;whiteSpace=wrap;html=1;align=left;verticalAlign=top;movable=1;resizable=1;rotatable=1;deletable=1;editable=1;locked=0;connectable=1;" vertex="1" parent="1">
          <mxGeometry x="336" y="870" width="509" height="150" as="geometry" />
        </mxCell>
        <mxCell id="y8NNZibKpEqC5LmSM_2C-10" value="&lt;b&gt;magic.binning(mzT, &lt;font color=&quot;#0066cc&quot;&gt;prebin_method&lt;/font&gt;, log_name)&lt;/b&gt;" style="rounded=0;whiteSpace=wrap;html=1;align=left;verticalAlign=top;movable=1;resizable=1;rotatable=1;deletable=1;editable=1;locked=0;connectable=1;" vertex="1" parent="1">
          <mxGeometry x="357" y="900" width="459" height="33" as="geometry" />
        </mxCell>
        <mxCell id="y8NNZibKpEqC5LmSM_2C-11" value="&lt;b style=&quot;border-color: var(--border-color);&quot;&gt;mz_filter_missingness(mzT, &lt;font color=&quot;#0066cc&quot;&gt;missingness_threshold&lt;/font&gt;, log_name)&lt;/b&gt;" style="rounded=0;whiteSpace=wrap;html=1;align=left;verticalAlign=top;movable=1;resizable=1;rotatable=1;deletable=1;editable=1;locked=0;connectable=1;" vertex="1" parent="1">
          <mxGeometry x="357" y="966" width="459" height="33" as="geometry" />
        </mxCell>
        <mxCell id="y8NNZibKpEqC5LmSM_2C-12" value="Parallel*&lt;br&gt;NewThreads = cores / 2" style="verticalLabelPosition=top;shadow=0;dashed=0;align=center;html=1;verticalAlign=bottom;strokeWidth=1;shape=mxgraph.mockup.markup.curlyBrace;whiteSpace=wrap;strokeColor=#999999;rotation=-90;labelPosition=center;" vertex="1" parent="1">
          <mxGeometry x="85.5" y="892.5" width="371" height="20" as="geometry" />
        </mxCell>
        <mxCell id="y8NNZibKpEqC5LmSM_2C-13" value="&lt;b&gt;magic.binning(mzT, &lt;font color=&quot;#0066cc&quot;&gt;postbin_method&lt;/font&gt;, log_name)&lt;/b&gt;" style="rounded=0;whiteSpace=wrap;html=1;align=left;verticalAlign=top;movable=1;resizable=1;rotatable=1;deletable=1;editable=1;locked=0;connectable=1;" vertex="1" parent="1">
          <mxGeometry x="300" y="1140" width="580" height="33" as="geometry" />
        </mxCell>
        <mxCell id="y8NNZibKpEqC5LmSM_2C-14" value="&lt;b style=&quot;border-color: var(--border-color);&quot;&gt;mz_filter_lowIntensity(mzT, &lt;font color=&quot;#0066cc&quot;&gt;intensity_threshold&amp;nbsp;&lt;/font&gt;, log_name)&lt;/b&gt;" style="rounded=0;whiteSpace=wrap;html=1;align=left;verticalAlign=top;movable=1;resizable=1;rotatable=1;deletable=1;editable=1;locked=0;connectable=1;" vertex="1" parent="1">
          <mxGeometry x="357" y="933" width="459" height="33" as="geometry" />
        </mxCell>
        <mxCell id="y8NNZibKpEqC5LmSM_2C-15" value="Parallel&lt;br&gt;NewThreads = 2" style="verticalLabelPosition=top;shadow=0;dashed=0;align=center;html=1;verticalAlign=bottom;strokeWidth=1;shape=mxgraph.mockup.markup.curlyBrace;whiteSpace=wrap;strokeColor=#999999;rotation=-90;labelPosition=center;" vertex="1" parent="1">
          <mxGeometry x="-31" y="877" width="405" height="20" as="geometry" />
        </mxCell>
        <mxCell id="y8NNZibKpEqC5LmSM_2C-16" value="Parallel&lt;br&gt;NewThreads = 2" style="verticalLabelPosition=top;shadow=0;dashed=0;align=center;html=1;verticalAlign=bottom;strokeWidth=1;shape=mxgraph.mockup.markup.curlyBrace;whiteSpace=wrap;strokeColor=#999999;rotation=-90;labelPosition=center;" vertex="1" parent="1">
          <mxGeometry x="125.5" y="1135.5" width="92" height="20" as="geometry" />
        </mxCell>
        <mxCell id="y8NNZibKpEqC5LmSM_2C-17" value="&lt;b&gt;magic.fill_params(&lt;font color=&quot;#0066cc&quot;&gt;params&lt;/font&gt;)&lt;br&gt;&lt;/b&gt;" style="rounded=0;whiteSpace=wrap;html=1;align=left;verticalAlign=top;movable=1;resizable=1;rotatable=1;deletable=1;editable=1;locked=0;connectable=1;" vertex="1" parent="1">
          <mxGeometry x="200" y="614" width="700" height="33" as="geometry" />
        </mxCell>
        <mxCell id="y8NNZibKpEqC5LmSM_2C-18" value="&lt;b&gt;magic.file_lister(&lt;font color=&quot;#000066&quot;&gt;files&lt;/font&gt;)&lt;br&gt;&lt;/b&gt;" style="rounded=0;whiteSpace=wrap;html=1;align=left;verticalAlign=top;movable=1;resizable=1;rotatable=1;deletable=1;editable=1;locked=0;connectable=1;" vertex="1" parent="1">
          <mxGeometry x="200" y="647" width="700" height="33" as="geometry" />
        </mxCell>
      </root>
    </mxGraphModel>
  </diagram>
  <diagram name="archive_medusa" id="L5nXW9tkdqejvZrWK5Da">
    <mxGraphModel dx="896" dy="691" grid="1" gridSize="10" guides="1" tooltips="1" connect="1" arrows="1" fold="1" page="1" pageScale="1" pageWidth="827" pageHeight="1169" math="0" shadow="0">
      <root>
        <mxCell id="0" />
        <mxCell id="1" parent="0" />
        <mxCell id="N2Hg_9W35EPz4bkpnXj7-96" value="MASDR" style="rounded=0;whiteSpace=wrap;html=1;verticalAlign=top;" vertex="1" parent="1">
          <mxGeometry x="260" y="174" width="479" height="326" as="geometry" />
        </mxCell>
        <mxCell id="N2Hg_9W35EPz4bkpnXj7-97" value="raw_to_mzml.sh" style="rounded=0;whiteSpace=wrap;html=1;" vertex="1" parent="1">
          <mxGeometry x="130" y="214" width="110" height="60" as="geometry" />
        </mxCell>
        <mxCell id="N2Hg_9W35EPz4bkpnXj7-98" value="Data Extraction&lt;div&gt;- Alignment&lt;br&gt;- Binning&lt;br&gt;- Pre-Filtering&amp;nbsp;&lt;/div&gt;" style="shape=cube;whiteSpace=wrap;html=1;boundedLbl=1;backgroundOutline=1;darkOpacity=0.05;darkOpacity2=0.1;size=10;align=left;" vertex="1" parent="1">
          <mxGeometry x="309" y="243" width="120" height="80" as="geometry" />
        </mxCell>
        <mxCell id="N2Hg_9W35EPz4bkpnXj7-99" value="Filtering&lt;br&gt;- Quality Control&lt;br style=&quot;border-color: var(--border-color);&quot;&gt;- Subtraction&lt;br&gt;- MassDefect&lt;br&gt;- Missingness&lt;br&gt;- LowIntensity&lt;br&gt;- BlackList&lt;br&gt;- Normalization" style="shape=cube;whiteSpace=wrap;html=1;boundedLbl=1;backgroundOutline=1;darkOpacity=0.05;darkOpacity2=0.1;size=10;align=left;" vertex="1" parent="1">
          <mxGeometry x="539" y="204" width="120" height="141" as="geometry" />
        </mxCell>
        <mxCell id="N2Hg_9W35EPz4bkpnXj7-100" style="edgeStyle=orthogonalEdgeStyle;rounded=0;orthogonalLoop=1;jettySize=auto;html=1;exitX=0.5;exitY=1;exitDx=0;exitDy=0;exitPerimeter=0;entryX=0.5;entryY=0;entryDx=0;entryDy=0;" edge="1" parent="1" source="N2Hg_9W35EPz4bkpnXj7-101" target="N2Hg_9W35EPz4bkpnXj7-97">
          <mxGeometry relative="1" as="geometry" />
        </mxCell>
        <mxCell id="N2Hg_9W35EPz4bkpnXj7-101" value="Raw Data" style="shape=note;whiteSpace=wrap;html=1;backgroundOutline=1;darkOpacity=0.05;size=18;verticalAlign=middle;" vertex="1" parent="1">
          <mxGeometry x="130" y="140" width="80" height="50" as="geometry" />
        </mxCell>
        <mxCell id="N2Hg_9W35EPz4bkpnXj7-102" value="mzObj" style="edgeStyle=orthogonalEdgeStyle;rounded=0;orthogonalLoop=1;jettySize=auto;html=1;exitX=0;exitY=0;exitDx=120;exitDy=45;exitPerimeter=0;entryX=-0.001;entryY=0.587;entryDx=0;entryDy=0;entryPerimeter=0;" edge="1" parent="1" source="N2Hg_9W35EPz4bkpnXj7-98" target="N2Hg_9W35EPz4bkpnXj7-99">
          <mxGeometry x="0.0119" relative="1" as="geometry">
            <mxPoint as="offset" />
          </mxGeometry>
        </mxCell>
        <mxCell id="N2Hg_9W35EPz4bkpnXj7-103" value="&lt;div style=&quot;text-align: left;&quot;&gt;&lt;span style=&quot;background-color: initial;&quot;&gt;Indentify:&lt;/span&gt;&lt;/div&gt;&lt;div style=&quot;text-align: left;&quot;&gt;&lt;span style=&quot;background-color: initial;&quot;&gt;- C13 Tagging&lt;/span&gt;&lt;/div&gt;&lt;div style=&quot;text-align: left;&quot;&gt;&lt;span style=&quot;background-color: initial;&quot;&gt;- Adduct&lt;/span&gt;&lt;/div&gt;&lt;div style=&quot;text-align: left;&quot;&gt;&lt;span style=&quot;background-color: initial;&quot;&gt;- HMDB&amp;nbsp;&lt;/span&gt;&lt;/div&gt;" style="shape=cube;whiteSpace=wrap;html=1;boundedLbl=1;backgroundOutline=1;darkOpacity=0.05;darkOpacity2=0.1;size=10;" vertex="1" parent="1">
          <mxGeometry x="309" y="370" width="120" height="80" as="geometry" />
        </mxCell>
        <mxCell id="N2Hg_9W35EPz4bkpnXj7-104" value="mzLogObj" style="edgeStyle=orthogonalEdgeStyle;rounded=0;orthogonalLoop=1;jettySize=auto;html=1;exitX=0;exitY=0;exitDx=120;exitDy=75.5;exitPerimeter=0;entryX=0;entryY=0;entryDx=120;entryDy=65;entryPerimeter=0;" edge="1" parent="1" source="N2Hg_9W35EPz4bkpnXj7-99" target="N2Hg_9W35EPz4bkpnXj7-105">
          <mxGeometry relative="1" as="geometry">
            <Array as="points">
              <mxPoint x="700" y="280" />
              <mxPoint x="700" y="425" />
            </Array>
          </mxGeometry>
        </mxCell>
        <mxCell id="N2Hg_9W35EPz4bkpnXj7-105" value="Statistics&lt;br&gt;- Welsh T-Test&lt;br&gt;- Anova&lt;br&gt;- PCA&lt;br&gt;- RandomForest&lt;br&gt;- Volcano&lt;br&gt;- HeatMap" style="shape=cube;whiteSpace=wrap;html=1;boundedLbl=1;backgroundOutline=1;darkOpacity=0.05;darkOpacity2=0.1;size=10;align=left;" vertex="1" parent="1">
          <mxGeometry x="539" y="360" width="120" height="120" as="geometry" />
        </mxCell>
        <mxCell id="N2Hg_9W35EPz4bkpnXj7-106" value="" style="shape=curlyBracket;whiteSpace=wrap;html=1;rounded=1;flipH=1;labelPosition=right;verticalLabelPosition=middle;align=left;verticalAlign=middle;rotation=90;" vertex="1" parent="1">
          <mxGeometry x="304.25" y="80.75" width="20" height="144.5" as="geometry" />
        </mxCell>
        <mxCell id="N2Hg_9W35EPz4bkpnXj7-107" style="edgeStyle=orthogonalEdgeStyle;rounded=0;orthogonalLoop=1;jettySize=auto;html=1;exitX=0.1;exitY=0.5;exitDx=0;exitDy=0;exitPerimeter=0;entryX=0;entryY=0;entryDx=55;entryDy=0;entryPerimeter=0;" edge="1" parent="1" source="N2Hg_9W35EPz4bkpnXj7-106" target="N2Hg_9W35EPz4bkpnXj7-98">
          <mxGeometry relative="1" as="geometry" />
        </mxCell>
        <mxCell id="N2Hg_9W35EPz4bkpnXj7-108" value="Binning Math&lt;br&gt;Intensity thresholds&lt;br&gt;Missingness thresholds" style="text;html=1;strokeColor=none;fillColor=none;align=center;verticalAlign=middle;whiteSpace=wrap;rounded=0;" vertex="1" parent="1">
          <mxGeometry x="221.5" y="106" width="185" height="30" as="geometry" />
        </mxCell>
        <mxCell id="N2Hg_9W35EPz4bkpnXj7-109" value="Meta Data" style="shape=note;whiteSpace=wrap;html=1;backgroundOutline=1;darkOpacity=0.05;size=18;verticalAlign=middle;" vertex="1" parent="1">
          <mxGeometry x="429" y="104" width="80" height="50" as="geometry" />
        </mxCell>
        <mxCell id="N2Hg_9W35EPz4bkpnXj7-110" style="edgeStyle=orthogonalEdgeStyle;rounded=0;orthogonalLoop=1;jettySize=auto;html=1;exitX=0;exitY=0;exitDx=80;exitDy=34;exitPerimeter=0;entryX=0.223;entryY=0.013;entryDx=0;entryDy=0;entryPerimeter=0;" edge="1" parent="1" source="N2Hg_9W35EPz4bkpnXj7-109" target="N2Hg_9W35EPz4bkpnXj7-99">
          <mxGeometry relative="1" as="geometry" />
        </mxCell>
        <mxCell id="N2Hg_9W35EPz4bkpnXj7-111" value="files.mzml" style="shape=note;whiteSpace=wrap;html=1;backgroundOutline=1;darkOpacity=0.05;size=18;verticalAlign=middle;" vertex="1" parent="1">
          <mxGeometry x="155" y="295" width="80" height="50" as="geometry" />
        </mxCell>
        <mxCell id="N2Hg_9W35EPz4bkpnXj7-112" style="edgeStyle=orthogonalEdgeStyle;rounded=0;orthogonalLoop=1;jettySize=auto;html=1;exitX=0;exitY=0;exitDx=80;exitDy=34;exitPerimeter=0;entryX=0;entryY=0;entryDx=0;entryDy=35;entryPerimeter=0;" edge="1" parent="1" source="N2Hg_9W35EPz4bkpnXj7-111" target="N2Hg_9W35EPz4bkpnXj7-98">
          <mxGeometry relative="1" as="geometry">
            <Array as="points">
              <mxPoint x="235" y="333" />
              <mxPoint x="250" y="333" />
              <mxPoint x="250" y="278" />
            </Array>
          </mxGeometry>
        </mxCell>
        <mxCell id="N2Hg_9W35EPz4bkpnXj7-113" style="edgeStyle=orthogonalEdgeStyle;rounded=0;orthogonalLoop=1;jettySize=auto;html=1;exitX=0.5;exitY=1;exitDx=0;exitDy=0;entryX=0.5;entryY=0;entryDx=0;entryDy=0;entryPerimeter=0;" edge="1" parent="1" source="N2Hg_9W35EPz4bkpnXj7-97" target="N2Hg_9W35EPz4bkpnXj7-111">
          <mxGeometry relative="1" as="geometry" />
        </mxCell>
        <mxCell id="N2Hg_9W35EPz4bkpnXj7-114" value="" style="shape=curlyBracket;whiteSpace=wrap;html=1;rounded=1;flipH=1;labelPosition=right;verticalLabelPosition=middle;align=left;verticalAlign=middle;rotation=90;" vertex="1" parent="1">
          <mxGeometry x="645" y="74" width="20" height="140" as="geometry" />
        </mxCell>
        <mxCell id="N2Hg_9W35EPz4bkpnXj7-115" style="edgeStyle=orthogonalEdgeStyle;rounded=0;orthogonalLoop=1;jettySize=auto;html=1;exitX=0.1;exitY=0.5;exitDx=0;exitDy=0;exitPerimeter=0;entryX=0;entryY=0;entryDx=55;entryDy=0;entryPerimeter=0;" edge="1" parent="1" source="N2Hg_9W35EPz4bkpnXj7-114" target="N2Hg_9W35EPz4bkpnXj7-99">
          <mxGeometry relative="1" as="geometry">
            <Array as="points">
              <mxPoint x="655" y="164" />
              <mxPoint x="594" y="164" />
            </Array>
          </mxGeometry>
        </mxCell>
        <mxCell id="N2Hg_9W35EPz4bkpnXj7-116" value="List( bad_mzs )&lt;br&gt;Subtraction Filter&lt;br&gt;Intensity thresholds&lt;br&gt;Missingness thresholds&lt;br&gt;Imputation thresholds" style="text;html=1;strokeColor=none;fillColor=none;align=center;verticalAlign=middle;whiteSpace=wrap;rounded=0;" vertex="1" parent="1">
          <mxGeometry x="562.5" y="40" width="185" height="117" as="geometry" />
        </mxCell>
        <mxCell id="N2Hg_9W35EPz4bkpnXj7-117" value="" style="shape=curlyBracket;whiteSpace=wrap;html=1;rounded=1;flipH=1;labelPosition=right;verticalLabelPosition=middle;align=left;verticalAlign=middle;rotation=-90;" vertex="1" parent="1">
          <mxGeometry x="593.5" y="406.5" width="20" height="215" as="geometry" />
        </mxCell>
        <mxCell id="N2Hg_9W35EPz4bkpnXj7-118" value="Analysis Attribute (e.g. Phenotype)&lt;br&gt;Welch ToAdjust? ( &amp;amp; method )&lt;br&gt;ToCorrelation? ( &amp;amp; cutoff )" style="text;html=1;strokeColor=none;fillColor=none;align=center;verticalAlign=middle;whiteSpace=wrap;rounded=0;" vertex="1" parent="1">
          <mxGeometry x="490" y="529" width="230" height="30" as="geometry" />
        </mxCell>
        <mxCell id="N2Hg_9W35EPz4bkpnXj7-119" value="" style="shape=curlyBracket;whiteSpace=wrap;html=1;rounded=1;flipH=1;labelPosition=right;verticalLabelPosition=middle;align=left;verticalAlign=middle;rotation=-90;" vertex="1" parent="1">
          <mxGeometry x="359" y="460" width="20" height="140" as="geometry" />
        </mxCell>
        <mxCell id="N2Hg_9W35EPz4bkpnXj7-120" style="edgeStyle=orthogonalEdgeStyle;rounded=0;orthogonalLoop=1;jettySize=auto;html=1;exitX=0.1;exitY=0.5;exitDx=0;exitDy=0;exitPerimeter=0;entryX=0;entryY=0;entryDx=65;entryDy=80;entryPerimeter=0;" edge="1" parent="1" source="N2Hg_9W35EPz4bkpnXj7-119" target="N2Hg_9W35EPz4bkpnXj7-103">
          <mxGeometry relative="1" as="geometry">
            <Array as="points">
              <mxPoint x="369" y="480" />
              <mxPoint x="374" y="480" />
            </Array>
          </mxGeometry>
        </mxCell>
        <mxCell id="N2Hg_9W35EPz4bkpnXj7-121" value="Adduct(s)" style="text;html=1;strokeColor=none;fillColor=none;align=center;verticalAlign=middle;whiteSpace=wrap;rounded=0;" vertex="1" parent="1">
          <mxGeometry x="254" y="529" width="230" height="30" as="geometry" />
        </mxCell>
        <mxCell id="N2Hg_9W35EPz4bkpnXj7-122" style="edgeStyle=orthogonalEdgeStyle;rounded=0;orthogonalLoop=1;jettySize=auto;html=1;exitX=0.1;exitY=0.5;exitDx=0;exitDy=0;exitPerimeter=0;entryX=0;entryY=0;entryDx=65;entryDy=120;entryPerimeter=0;" edge="1" parent="1" source="N2Hg_9W35EPz4bkpnXj7-117" target="N2Hg_9W35EPz4bkpnXj7-105">
          <mxGeometry relative="1" as="geometry" />
        </mxCell>
        <mxCell id="N2Hg_9W35EPz4bkpnXj7-123" value="mz" style="edgeStyle=orthogonalEdgeStyle;rounded=0;orthogonalLoop=1;jettySize=auto;html=1;exitX=0;exitY=0;exitDx=0;exitDy=55;exitPerimeter=0;entryX=0;entryY=0;entryDx=120;entryDy=45;entryPerimeter=0;" edge="1" parent="1" source="N2Hg_9W35EPz4bkpnXj7-105" target="N2Hg_9W35EPz4bkpnXj7-103">
          <mxGeometry relative="1" as="geometry">
            <mxPoint as="offset" />
          </mxGeometry>
        </mxCell>
      </root>
    </mxGraphModel>
  </diagram>
</mxfile>
